<svg xmlns="http://www.w3.org/2000/svg" width="116" height="76" viewBox="0 0 116 76" fill="none">
<mask id="mask0_844_1855" style="mask-type:luminance" maskUnits="userSpaceOnUse" x="0" y="0" width="116" height="76" fill="#0d0c0d">
<path d="M116 0H0V76H116V0Z" fill="#ffffff"/>
</mask>
<g mask="url(#mask0_844_1855)">
<path d="M32.2976 27.8288C32.2976 28.011 32.1485 28.1601 31.9662 28.1601H27.2599C27.0776 28.1601 26.9285 28.011 26.9285 27.8288V23.1243C26.9285 22.9421 27.0776 22.793 27.2599 22.793H31.9662C32.1485 22.793 32.2976 22.9421 32.2976 23.1243V27.8288Z" fill="#9f96b0"/>
<path d="M39.0584 27.8288C39.0584 28.011 38.9092 28.1601 38.7269 28.1601H34.0206C33.8384 28.1601 33.6892 28.011 33.6892 27.8288V23.1243C33.6892 22.9421 33.8384 22.793 34.0206 22.793H38.7269C38.9092 22.793 39.0584 22.9421 39.0584 23.1243V27.8288Z" fill="#9f96b0"/>
<path d="M82.31 27.8288C82.31 28.011 82.161 28.1601 81.979 28.1601H77.2723C77.0901 28.1601 76.9409 28.011 76.9409 27.8288V23.1243C76.9409 22.9421 77.0901 22.793 77.2723 22.793H81.979C82.161 22.793 82.31 22.9421 82.31 23.1243V27.8288Z" fill="#9f96b0"/>
<path d="M89.071 27.8288C89.071 28.011 88.922 28.1601 88.739 28.1601H84.033C83.851 28.1601 83.702 28.011 83.702 27.8288V23.1243C83.702 22.9421 83.851 22.793 84.033 22.793H88.739C88.922 22.793 89.071 22.9421 89.071 23.1243V27.8288Z" fill="#9f96b0"/>
<path d="M99.777 23.3895L93.894 17.509V13.3512C93.894 13.1193 93.695 12.937 93.463 12.937H91.607C91.375 12.937 91.193 13.1193 91.193 13.3512V14.8254L83.404 7.03987C83.189 6.82453 82.824 6.82453 82.592 7.03987L81.78 7.85156C81.565 8.06686 81.2 8.43136 80.968 8.66326L73.9254 15.7034L60.0055 1.78878C59.79 1.55687 59.4255 1.20901 59.1935 0.977099L58.398 0.165419C58.1826 -0.0499313 57.818 -0.0499313 57.586 0.165419L49.7975 7.95095V6.47667C49.7975 6.24476 49.6152 6.06254 49.3666 6.06254H47.5106C47.2786 6.06254 47.0797 6.26132 47.0797 6.47667V10.6345L42.042 15.6703L34.9992 8.63006C34.7837 8.41476 34.4192 8.05036 34.1872 7.81843L33.3752 7.00674C33.1597 6.7914 32.7952 6.7914 32.5632 7.00674L24.7746 14.7923V13.318C24.7746 13.0861 24.5923 12.9039 24.3437 12.9039H22.4877C22.2557 12.9039 22.0569 13.0861 22.0569 13.318V17.4758L16.174 23.3564C15.9586 23.5717 15.9586 23.9362 16.174 24.1681L16.986 24.9798C17.2015 25.1951 17.566 25.1951 17.798 24.9798L32.5466 10.2204C32.762 10.005 33.1266 10.005 33.3586 10.2204L48.1237 24.9798C48.3392 25.1951 48.7037 25.1951 48.9357 24.9798L49.7477 24.1681C49.9632 23.9527 49.9632 23.5883 49.7477 23.3564L43.6494 17.2605L57.5694 3.34589C57.7849 3.13055 58.1494 3.13055 58.3814 3.34589L72.3014 17.2605L66.2032 23.3564C65.9877 23.5717 65.9877 23.9362 66.2032 24.1681L67.0152 24.9798C67.2306 25.1951 67.5952 25.1951 67.8272 24.9798L82.576 10.2204C82.791 10.005 83.156 10.005 83.388 10.2204L98.136 24.9798C98.352 25.1951 98.716 25.1951 98.948 24.9798L99.76 24.1681C100.009 23.9859 100.009 23.6214 99.777 23.3895Z" fill="#9f96b0"/>
<path d="M33.7236 11.7931C33.6407 11.7103 33.4916 11.5612 33.4087 11.4784L33.0939 11.1637C33.011 11.0809 32.8619 11.0809 32.779 11.1637L26.515 17.4418C26.4322 17.5246 26.4322 17.6737 26.515 17.7565L26.8299 18.0713C26.9127 18.1541 27.0619 18.1541 27.1447 18.0713L32.7956 12.4226C32.8785 12.3398 33.0276 12.3398 33.1105 12.4226L38.7613 18.0713C38.8442 18.1541 38.9933 18.1541 39.0762 18.0713L39.391 17.7565C39.4739 17.6737 39.4739 17.5246 39.391 17.4418L33.7236 11.7931Z" fill="#9f96b0"/>
<path d="M58.7792 4.86932C58.6964 4.7865 58.5472 4.63741 58.4644 4.55459L58.1495 4.23986C58.0667 4.15703 57.9175 4.15703 57.8347 4.23986L51.5541 10.518C51.4712 10.6008 51.4712 10.7499 51.5541 10.8327L51.8689 11.1475C51.9518 11.2303 52.1009 11.2303 52.1838 11.1475L57.8347 5.49879C57.9175 5.41597 58.0667 5.41597 58.1495 5.49879L63.8004 11.1475C63.8832 11.2303 64.0324 11.2303 64.1152 11.1475L64.4301 10.8327C64.5129 10.7499 64.5129 10.6174 64.4301 10.518L58.7792 4.86932Z" fill="#9f96b0"/>
<path d="M83.785 11.7931C83.702 11.7103 83.553 11.5612 83.47 11.4784L83.155 11.1637C83.073 11.0809 82.923 11.0809 82.841 11.1637L76.5599 17.4418C76.4771 17.5246 76.4771 17.6737 76.5599 17.7565L76.8748 18.0713C76.9577 18.1541 77.1068 18.1541 77.1897 18.0713L82.857 12.4061C82.94 12.3232 83.089 12.3232 83.172 12.4061L88.823 18.0547C88.906 18.1375 89.055 18.1375 89.138 18.0547L89.453 17.74C89.535 17.6571 89.535 17.5081 89.453 17.4252L83.785 11.7931Z" fill="#9f96b0"/>
<path d="M57.9999 34.0409C77.9519 34.0409 95.219 38.2484 103.571 44.3774C101.069 36.5422 81.631 30.4297 57.9999 30.4297C34.369 30.4297 14.9308 36.5256 12.4285 44.3774C20.7805 38.2484 38.0479 34.0409 57.9999 34.0409Z" fill="#9f96b0"/>
<path d="M32.2976 32.0532V29.5188C32.2976 29.3366 32.1485 29.1875 31.9662 29.1875H27.2599C27.0776 29.1875 26.9285 29.3366 26.9285 29.5188V33.511C28.6022 32.9809 30.4085 32.5005 32.2976 32.0532Z" fill="#9f96b0"/>
<path d="M39.0584 30.7612V29.5188C39.0584 29.3366 38.9092 29.1875 38.7269 29.1875H34.0206C33.8384 29.1875 33.6892 29.3366 33.6892 29.5188V31.7551C35.4126 31.3741 37.2024 31.0428 39.0584 30.7612Z" fill="#9f96b0"/>
<path d="M82.31 31.7375V29.5012C82.31 29.319 82.161 29.1699 81.979 29.1699H77.2723C77.0901 29.1699 76.9409 29.319 76.9409 29.5012V30.7436C78.797 31.0417 80.587 31.373 82.31 31.7375Z" fill="#9f96b0"/>
<path d="M89.071 33.511V29.5188C89.071 29.3366 88.922 29.1875 88.74 29.1875H84.033C83.851 29.1875 83.702 29.3366 83.702 29.5188V32.0532C85.591 32.5005 87.397 32.9809 89.071 33.511Z" fill="#9f96b0"/>
<path d="M57.3035 21.7487C57.3035 21.9309 57.1543 22.08 56.972 22.08H52.2658C52.0835 22.08 51.9343 21.9309 51.9343 21.7487V17.0442C51.9343 16.862 52.0835 16.7129 52.2658 16.7129H56.972C57.1543 16.7129 57.3035 16.862 57.3035 17.0442V21.7487Z" fill="#9f96b0"/>
<path d="M64.0642 21.7487C64.0642 21.9309 63.9151 22.08 63.7328 22.08H59.0265C58.8442 22.08 58.6951 21.9309 58.6951 21.7487V17.0442C58.6951 16.862 58.8442 16.7129 59.0265 16.7129H63.7328C63.9151 16.7129 64.0642 16.862 64.0642 17.0442V21.7487Z" fill="#9f96b0"/>
<path d="M57.3035 28.1431C57.3035 28.3253 57.1543 28.4744 56.972 28.4744H52.2658C52.0835 28.4744 51.9343 28.3253 51.9343 28.1431V23.4387C51.9343 23.2564 52.0835 23.1074 52.2658 23.1074H56.972C57.1543 23.1074 57.3035 23.2564 57.3035 23.4387V28.1431Z" fill="#9f96b0"/>
<path d="M64.0642 28.1431C64.0642 28.3253 63.9151 28.4744 63.7328 28.4744H59.0265C58.8442 28.4744 58.6951 28.3253 58.6951 28.1431V23.4387C58.6951 23.2564 58.8442 23.1074 59.0265 23.1074H63.7328C63.9151 23.1074 64.0642 23.2564 64.0642 23.4387V28.1431Z" fill="#9f96b0"/>
<path d="M0 50.7871H7.656C9.4291 50.7871 10.7549 51.1681 11.6331 51.9301C12.5114 52.6921 12.9589 53.7522 12.9589 55.1271C12.9589 55.8891 12.8429 56.5186 12.6274 57.0321C12.3954 57.529 12.1469 57.9431 11.8486 58.2413C11.5503 58.556 11.252 58.7714 10.9537 58.9039C10.6554 59.0364 10.44 59.1358 10.3074 59.169V59.2186C10.5394 59.2518 10.8046 59.318 11.0863 59.4506C11.368 59.5665 11.6166 59.7653 11.8651 60.0303C12.0971 60.2954 12.296 60.6267 12.4617 61.0574C12.6109 61.4715 12.6937 62.0016 12.6937 62.631C12.6937 63.5752 12.76 64.4366 12.9091 65.1986C13.0583 65.9771 13.2737 66.5238 13.572 66.8551H10.556C10.3406 66.5072 10.2246 66.1262 10.1914 65.7121C10.1583 65.298 10.1417 64.8839 10.1417 64.5029C10.1417 63.774 10.092 63.128 10.0091 62.5979C9.9263 62.0678 9.7606 61.6206 9.512 61.2727C9.28 60.9248 8.9486 60.6598 8.5343 60.4941C8.12 60.3285 7.5897 60.2457 6.9434 60.2457H2.8171V66.8551H0V50.7871ZM2.8171 58.0922H7.424C8.3189 58.0922 8.9983 57.8769 9.4623 57.4462C9.9263 57.0155 10.1583 56.386 10.1583 55.5247C10.1583 55.0111 10.0754 54.597 9.9263 54.2823C9.7771 53.9676 9.5783 53.7025 9.3131 53.5369C9.048 53.3547 8.7497 53.2387 8.4183 53.1724C8.0869 53.1062 7.7389 53.0896 7.3743 53.0896H2.8171V58.0922Z" fill="#9f96b0"/>
<path d="M17.4663 61.6882C17.4663 62.1354 17.5326 62.5661 17.6652 62.9968C17.7978 63.4109 17.9801 63.7754 18.2452 64.0901C18.4938 64.4048 18.8252 64.6533 19.2063 64.8355C19.5875 65.0177 20.0681 65.1171 20.5983 65.1171C21.3441 65.1171 21.9572 64.9515 22.4046 64.6367C22.8686 64.322 23.2001 63.8251 23.4321 63.1956H25.8515C25.7189 63.8251 25.4869 64.3883 25.1555 64.8852C24.8241 65.3822 24.4263 65.7963 23.9623 66.1276C23.4983 66.4589 22.9846 66.7239 22.4046 66.8896C21.8246 67.0552 21.2281 67.1546 20.5983 67.1546C19.6869 67.1546 18.8749 67.0055 18.1789 66.7074C17.4663 66.4092 16.8863 65.9951 16.3892 65.4484C15.9086 64.9018 15.5275 64.2723 15.2955 63.5103C15.0469 62.7649 14.9309 61.9366 14.9309 61.0421C14.9309 60.2139 15.0635 59.4353 15.3286 58.6899C15.5938 57.9445 15.9583 57.2985 16.4555 56.7353C16.9361 56.172 17.5326 55.7248 18.2121 55.3935C18.9081 55.0622 19.6869 54.8965 20.5486 54.8965C21.4601 54.8965 22.2886 55.0953 23.0178 55.4763C23.7469 55.8573 24.3435 56.3708 24.8241 57.0003C25.3046 57.6298 25.6526 58.3586 25.8681 59.1703C26.0835 59.982 26.1332 60.8268 26.0338 61.7047H17.4663V61.6882ZM23.4486 59.9985C23.4155 59.601 23.3326 59.2034 23.1835 58.8224C23.0343 58.4414 22.8521 58.1267 22.6035 57.8451C22.3549 57.5635 22.0566 57.3482 21.7086 57.1659C21.3606 57.0003 20.9629 56.9009 20.5321 56.9009C20.0846 56.9009 19.6703 56.9837 19.3058 57.1328C18.9412 57.2819 18.6263 57.5138 18.3612 57.7788C18.0961 58.0604 17.8972 58.3752 17.7315 58.7562C17.5823 59.1372 17.4829 59.5347 17.4663 59.9654H23.4486V59.9985Z" fill="#9f96b0"/>
<path d="M37.6835 64.2545C37.6835 64.5693 37.7166 64.8012 37.7995 64.9337C37.8824 65.0662 38.0481 65.1325 38.2801 65.1325C38.3629 65.1325 38.4458 65.1325 38.5452 65.1325C38.6446 65.1325 38.7772 65.1159 38.9098 65.0828V66.8552C38.8269 66.8884 38.7109 66.9215 38.5618 66.9546C38.4126 66.9878 38.2801 67.0209 38.1309 67.054C37.9818 67.0872 37.8326 67.1037 37.6835 67.1203C37.5344 67.1369 37.4018 67.1368 37.3024 67.1368C36.7721 67.1368 36.3412 67.0375 35.9932 66.8221C35.6452 66.6068 35.4298 66.2423 35.3138 65.7288C34.8001 66.2258 34.1869 66.5902 33.4412 66.8056C32.6955 67.0209 31.9829 67.1368 31.2869 67.1368C30.7566 67.1368 30.2595 67.0706 29.7789 66.9215C29.2984 66.7724 28.8841 66.5736 28.5029 66.292C28.1384 66.0104 27.8401 65.6626 27.6246 65.2319C27.4092 64.8012 27.2932 64.3042 27.2932 63.741C27.2932 63.0287 27.4258 62.4324 27.6909 61.9852C27.9561 61.5379 28.3041 61.19 28.7184 60.925C29.1492 60.6765 29.6298 60.4943 30.1601 60.3784C30.6904 60.2624 31.2206 60.1796 31.7675 60.1133C32.2315 60.0305 32.6789 59.9642 33.0932 59.9145C33.5075 59.8814 33.8886 59.8151 34.2035 59.7158C34.5184 59.6329 34.7835 59.4838 34.9658 59.3016C35.1481 59.1194 35.2475 58.8378 35.2475 58.4568C35.2475 58.1255 35.1646 57.8605 35.0155 57.6451C34.8664 57.4298 34.6675 57.2807 34.4355 57.1648C34.2035 57.0488 33.9384 56.9825 33.6566 56.9328C33.3749 56.8997 33.1098 56.8831 32.8446 56.8831C32.1321 56.8831 31.5355 57.0322 31.0715 57.3304C30.6075 57.6286 30.3424 58.0924 30.2926 58.7219H27.7241C27.7738 57.9764 27.9561 57.347 28.2709 56.85C28.5858 56.3531 28.9835 55.9555 29.4806 55.6573C29.9612 55.3592 30.5246 55.1438 31.1378 55.0279C31.7509 54.9119 32.3806 54.8457 33.0269 54.8457C33.5904 54.8457 34.1538 54.9119 34.7172 55.0279C35.2641 55.1438 35.7778 55.3426 36.2086 55.6076C36.6561 55.8727 37.0041 56.2205 37.2692 56.6512C37.5344 57.0819 37.6669 57.5954 37.6669 58.2083V64.2545H37.6835ZM35.1315 61.0078C34.7338 61.2563 34.2698 61.4219 33.6898 61.4716C33.1264 61.5213 32.5464 61.6042 31.9829 61.7035C31.7178 61.7532 31.4526 61.8195 31.2041 61.9023C30.9555 61.9852 30.7235 62.1011 30.5246 62.2336C30.3258 62.3827 30.1766 62.5649 30.0606 62.7968C29.9446 63.0287 29.8949 63.3103 29.8949 63.6416C29.8949 63.9233 29.9778 64.1717 30.1435 64.3539C30.3092 64.5527 30.5081 64.7018 30.7401 64.8178C30.9721 64.9337 31.2206 65.0165 31.5024 65.0497C31.7841 65.0994 32.0326 65.1159 32.2481 65.1159C32.5298 65.1159 32.8446 65.0828 33.1761 65C33.5075 64.9171 33.8224 64.8012 34.1041 64.619C34.4024 64.4368 34.6344 64.2049 34.8332 63.9398C35.0321 63.6582 35.1315 63.3269 35.1315 62.9128V61.0078Z" fill="#9f96b0"/>
<path d="M40.5176 50.7871H43.0861V66.822H40.5176V50.7871Z" fill="#9f96b0"/>
<path d="M52.4814 50.7871H64.0317V53.2056H55.282V57.4131H63.3688V59.699H55.282V64.3869H64.1808V66.8054H52.4648V50.7871H52.4814Z" fill="#9f96b0"/>
<path d="M68.2083 63.0952C68.2912 63.8406 68.5729 64.3707 69.07 64.6688C69.5672 64.967 70.1637 65.1161 70.8432 65.1161C71.0752 65.1161 71.3569 65.0995 71.6717 65.0664C71.9866 65.0333 72.2683 64.9504 72.5335 64.851C72.7986 64.7517 73.0306 64.586 73.1963 64.3872C73.362 64.1884 73.4449 63.9234 73.4283 63.5921C73.4117 63.2608 73.2957 62.9958 73.0637 62.7804C72.8317 62.5651 72.55 62.3994 72.202 62.2669C71.854 62.1344 71.4563 62.035 70.9923 61.9356C70.5449 61.8528 70.0809 61.7534 69.6169 61.6374C69.1363 61.5381 68.6723 61.4055 68.2415 61.2564C67.794 61.1074 67.3963 60.9086 67.0483 60.6435C66.7003 60.3951 66.4186 60.0638 66.2032 59.6662C65.9877 59.2687 65.8883 58.7717 65.8883 58.1919C65.8883 57.5625 66.0375 57.0324 66.3523 56.6017C66.6672 56.171 67.0483 55.8231 67.5289 55.5747C67.9929 55.3096 68.5232 55.1274 69.1032 55.028C69.6832 54.9286 70.23 54.8789 70.7603 54.8789C71.3569 54.8789 71.9369 54.9452 72.4837 55.0777C73.0306 55.2102 73.5277 55.409 73.9752 55.6906C74.4226 55.9722 74.7872 56.3532 75.0689 56.8005C75.3672 57.2643 75.5495 57.8109 75.6157 58.457H72.9477C72.8317 57.8441 72.55 57.4299 72.1026 57.2146C71.6552 56.9993 71.158 56.8999 70.578 56.8999C70.3957 56.8999 70.1803 56.9164 69.9317 56.9496C69.6832 56.9827 69.4512 57.0324 69.2357 57.1152C69.0203 57.198 68.838 57.314 68.6889 57.4796C68.5397 57.6287 68.4569 57.8441 68.4569 58.0925C68.4569 58.4073 68.5729 58.6557 68.7883 58.8545C69.0037 59.0533 69.2855 59.2024 69.65 59.3349C69.998 59.4674 70.3957 59.5668 70.8597 59.6662C71.3072 59.749 71.7712 59.8484 72.2517 59.9644C72.7157 60.0638 73.1797 60.1963 73.6272 60.3454C74.0746 60.4945 74.4723 60.6932 74.8369 60.9583C75.1849 61.2068 75.4666 61.538 75.6986 61.919C75.914 62.3166 76.03 62.7804 76.03 63.3602C76.03 64.0559 75.8809 64.6357 75.566 65.1161C75.2512 65.5965 74.8369 65.9775 74.3397 66.2922C73.8426 66.5904 73.2792 66.8057 72.666 66.9382C72.0529 67.0707 71.4397 67.137 70.8432 67.137C70.114 67.137 69.4346 67.0542 68.8049 66.8885C68.1752 66.7229 67.6449 66.4744 67.1809 66.1431C66.7169 65.8118 66.3689 65.3811 66.1037 64.8842C65.8386 64.3872 65.706 63.7909 65.6895 63.0952H68.2083Z" fill="#9f96b0"/>
<path d="M76.7754 55.211H78.714V51.7324H81.283V55.211H83.603V57.116H81.283V63.3113C81.283 63.5763 81.299 63.8083 81.316 64.007C81.333 64.2058 81.399 64.3715 81.465 64.504C81.548 64.6365 81.664 64.7359 81.83 64.8022C81.995 64.8684 82.227 64.9015 82.509 64.9015C82.691 64.9015 82.874 64.9015 83.056 64.885C83.238 64.885 83.421 64.8518 83.603 64.8022V66.7734C83.321 66.8065 83.039 66.8396 82.774 66.8562C82.509 66.8893 82.227 66.9059 81.946 66.9059C81.266 66.9059 80.736 66.8396 80.322 66.7071C79.907 66.5746 79.593 66.3924 79.361 66.1439C79.129 65.8954 78.963 65.5807 78.897 65.2163C78.814 64.8353 78.764 64.4212 78.747 63.9408V57.0829H76.8085V55.211H76.7754Z" fill="#9f96b0"/>
<path d="M95.1529 64.2545C95.1529 64.5693 95.1859 64.8012 95.2689 64.9337C95.3519 65.0662 95.5179 65.1325 95.7499 65.1325C95.8329 65.1325 95.9159 65.1325 96.0149 65.1325C96.1139 65.1325 96.2469 65.1159 96.3799 65.0828V66.8552C96.2969 66.8884 96.1809 66.9215 96.0319 66.9546C95.8819 66.9878 95.7499 67.0209 95.6009 67.054C95.4519 67.0872 95.3019 67.1037 95.1529 67.1203C95.0039 67.1369 94.8719 67.1368 94.7719 67.1368C94.2419 67.1368 93.8109 67.0375 93.4629 66.8221C93.1149 66.6068 92.8999 66.2423 92.7839 65.7288C92.2699 66.2258 91.6569 66.5902 90.9109 66.8056C90.1649 67.0375 89.4529 67.1368 88.7569 67.1368C88.2259 67.1368 87.7289 67.0706 87.2489 66.9215C86.7679 66.7724 86.3539 66.5736 85.9729 66.292C85.6079 66.0104 85.3099 65.6626 85.0939 65.2319C84.8789 64.8012 84.7629 64.3042 84.7629 63.741C84.7629 63.0287 84.8959 62.4324 85.1609 61.9852C85.4259 61.5379 85.7739 61.19 86.1879 60.925C86.6189 60.6765 87.0999 60.4943 87.6299 60.3784C88.1599 60.2624 88.6899 60.1796 89.2369 60.1133C89.7009 60.0305 90.1489 59.9642 90.5629 59.9145C90.9769 59.8814 91.3579 59.8151 91.6729 59.7158C91.9879 59.6329 92.2529 59.4838 92.4359 59.3016C92.6179 59.1194 92.7169 58.8378 92.7169 58.4568C92.7169 58.1255 92.6339 57.8605 92.4849 57.6451C92.3359 57.4298 92.1369 57.2807 91.9049 57.1648C91.6729 57.0488 91.4079 56.9825 91.1259 56.9328C90.8449 56.8997 90.5799 56.8831 90.3139 56.8831C89.6019 56.8831 89.0049 57.0322 88.5409 57.3304C88.0769 57.6286 87.8119 58.0924 87.7619 58.7219H85.1939C85.2439 57.9764 85.4259 57.347 85.7409 56.85C86.0559 56.3531 86.4529 55.9555 86.9499 55.6573C87.4309 55.3592 87.9939 55.1438 88.6079 55.0279C89.2209 54.9119 89.8499 54.8457 90.4969 54.8457C91.0599 54.8457 91.6239 54.9119 92.1869 55.0279C92.7339 55.1438 93.2479 55.3426 93.6779 55.6076C94.1259 55.8727 94.4739 56.2205 94.7389 56.6512C95.0039 57.0819 95.1369 57.5954 95.1369 58.2083V64.2545H95.1529ZM92.6009 61.0078C92.2039 61.2563 91.7399 61.4219 91.1599 61.4716C90.5959 61.5213 90.0159 61.6042 89.4529 61.7035C89.1879 61.7532 88.9219 61.8195 88.6739 61.9023C88.4249 61.9852 88.1929 62.1011 87.9939 62.2336C87.7959 62.3827 87.6459 62.5649 87.5299 62.7968C87.4139 63.0287 87.3649 63.3103 87.3649 63.6416C87.3649 63.9233 87.4479 64.1717 87.6129 64.3539C87.7789 64.5527 87.9779 64.7018 88.2099 64.8178C88.4419 64.9337 88.6899 65.0165 88.9719 65.0497C89.2539 65.0994 89.5019 65.1159 89.7179 65.1159C89.9999 65.1159 90.3139 65.0828 90.6459 65C90.9769 64.9171 91.2919 64.8012 91.5739 64.619C91.8719 64.4368 92.1039 64.2049 92.3029 63.9398C92.5019 63.6582 92.6009 63.3269 92.6009 62.9128V61.0078Z" fill="#9f96b0"/>
<path d="M96.76 55.211H98.699V51.7324H101.251V55.211H103.571V57.116H101.251V63.3113C101.251 63.5763 101.268 63.8083 101.284 64.007C101.301 64.2058 101.367 64.3715 101.434 64.504C101.516 64.6365 101.632 64.7359 101.798 64.8022C101.964 64.8684 102.196 64.9015 102.478 64.9015C102.66 64.9015 102.842 64.9015 103.024 64.885C103.207 64.885 103.389 64.8518 103.571 64.8022V66.7734C103.29 66.8065 103.008 66.8396 102.743 66.8562C102.478 66.8893 102.196 66.9059 101.914 66.9059C101.235 66.9059 100.704 66.8396 100.29 66.7071C99.876 66.5746 99.561 66.3924 99.329 66.1439C99.097 65.8954 98.931 65.5807 98.865 65.2163C98.782 64.8353 98.732 64.4212 98.716 63.9408V57.0829H96.777V55.211H96.76Z" fill="#9f96b0"/>
<path d="M107.416 61.6882C107.416 62.1354 107.483 62.5661 107.615 62.9968C107.748 63.4109 107.93 63.7754 108.195 64.0901C108.444 64.4048 108.775 64.6533 109.156 64.8355C109.554 65.0177 110.018 65.1171 110.548 65.1171C111.294 65.1171 111.907 64.9515 112.355 64.6367C112.819 64.322 113.15 63.8251 113.382 63.1956H115.801C115.669 63.8251 115.437 64.3883 115.105 64.8852C114.774 65.3822 114.376 65.7963 113.912 66.1276C113.448 66.4589 112.935 66.7239 112.355 66.8896C111.775 67.0552 111.178 67.1546 110.548 67.1546C109.637 67.1546 108.825 67.0055 108.129 66.7074C107.416 66.4092 106.836 65.9951 106.339 65.4484C105.859 64.9018 105.477 64.2723 105.245 63.5103C104.997 62.7649 104.881 61.9366 104.881 61.0421C104.881 60.2139 105.013 59.4353 105.279 58.6899C105.544 57.9445 105.908 57.2985 106.405 56.7353C106.886 56.172 107.483 55.7248 108.162 55.3935C108.858 55.0622 109.637 54.8965 110.499 54.8965C111.41 54.8965 112.239 55.0953 112.968 55.4763C113.697 55.8573 114.293 56.3708 114.774 57.0003C115.255 57.6298 115.603 58.3586 115.818 59.1703C116.033 59.982 116.083 60.8268 115.984 61.7047H107.416V61.6882ZM113.382 59.9985C113.349 59.601 113.266 59.2034 113.117 58.8224C112.968 58.4414 112.785 58.1267 112.537 57.8451C112.288 57.5635 111.99 57.3482 111.642 57.1659C111.294 57.0003 110.896 56.9009 110.465 56.9009C110.018 56.9009 109.604 56.9837 109.239 57.1328C108.875 57.2819 108.56 57.5138 108.295 57.7788C108.029 58.0604 107.831 58.3752 107.665 58.7562C107.516 59.1372 107.416 59.5347 107.4 59.9654H113.382V59.9985Z" fill="#9f96b0"/>
<path d="M15.113 71.709H15.8588L16.6542 74.0115H16.6708L17.4496 71.709H18.1622L16.969 74.9557C16.9193 75.0883 16.853 75.2208 16.8033 75.3533C16.7536 75.4858 16.6873 75.5852 16.6045 75.6846C16.5216 75.784 16.4388 75.8668 16.3228 75.9165C16.2068 75.9662 16.0576 75.9993 15.8753 75.9993C15.7096 75.9993 15.5605 75.9828 15.4113 75.9662V75.403C15.461 75.403 15.5273 75.4196 15.577 75.4361C15.6268 75.4527 15.6765 75.4527 15.7428 75.4527C15.8256 75.4527 15.8919 75.4361 15.9416 75.4196C15.9913 75.403 16.041 75.3699 16.0742 75.3367C16.1073 75.3036 16.1405 75.2539 16.157 75.2042C16.1736 75.1545 16.2068 75.0883 16.2233 75.022L16.3062 74.7901L15.113 71.709Z" fill="#9f96b0"/>
<path d="M21.1288 74.8738C20.8802 74.8738 20.6648 74.8407 20.4659 74.7579C20.2671 74.675 20.1179 74.5591 19.9854 74.4266C19.8528 74.2775 19.7534 74.1118 19.6871 73.913C19.6208 73.7143 19.5876 73.4989 19.5876 73.267C19.5876 73.0351 19.6208 72.8198 19.6871 72.621C19.7534 72.4222 19.8528 72.2565 19.9854 72.1075C20.1179 71.9584 20.2836 71.859 20.4659 71.7762C20.6648 71.6933 20.8802 71.6602 21.1288 71.6602C21.3774 71.6602 21.5928 71.6933 21.7916 71.7762C21.9905 71.859 22.1396 71.9749 22.2722 72.1075C22.4048 72.2565 22.5042 72.4222 22.5705 72.621C22.6368 72.8198 22.6699 73.0351 22.6699 73.267C22.6699 73.4989 22.6368 73.7308 22.5705 73.913C22.5042 74.1118 22.4048 74.2775 22.2722 74.4266C22.1396 74.5756 21.9739 74.675 21.7916 74.7579C21.5928 74.8241 21.3774 74.8738 21.1288 74.8738ZM21.1288 74.3272C21.2779 74.3272 21.4105 74.294 21.5265 74.2278C21.6425 74.1615 21.7254 74.0787 21.8082 73.9793C21.8745 73.8799 21.9242 73.764 21.9739 73.6314C22.0071 73.4989 22.0236 73.3664 22.0236 73.2339C22.0236 73.1014 22.0071 72.9688 21.9739 72.8363C21.9408 72.7038 21.8911 72.5878 21.8082 72.4885C21.7419 72.3891 21.6425 72.3062 21.5265 72.24C21.4105 72.1737 21.2779 72.1406 21.1288 72.1406C20.9796 72.1406 20.8471 72.1737 20.7311 72.24C20.6151 72.3062 20.5322 72.3891 20.4494 72.4885C20.3831 72.5878 20.3334 72.7038 20.2836 72.8363C20.2505 72.9688 20.2339 73.1014 20.2339 73.2339C20.2339 73.3664 20.2505 73.4989 20.2836 73.6314C20.3168 73.764 20.3665 73.8799 20.4494 73.9793C20.5156 74.0787 20.6151 74.1615 20.7311 74.2278C20.8471 74.294 20.9796 74.3272 21.1288 74.3272Z" fill="#9f96b0"/>
<path d="M27.1443 74.7744H26.4814V74.3437H26.4649C26.382 74.4928 26.2494 74.6253 26.1003 74.7082C25.9346 74.8076 25.7689 74.8407 25.6031 74.8407C25.2054 74.8407 24.9071 74.7413 24.7249 74.5425C24.5426 74.3437 24.4597 74.0456 24.4597 73.6314V71.6768H25.1391V73.5652C25.1391 73.8302 25.1889 74.029 25.2883 74.1284C25.3877 74.2443 25.5369 74.294 25.7191 74.294C25.8683 74.294 25.9843 74.2775 26.0837 74.2278C26.1831 74.1781 26.2494 74.1284 26.3157 74.0456C26.382 73.9793 26.4151 73.8799 26.4483 73.7805C26.4814 73.6811 26.4814 73.5652 26.4814 73.4492V71.6602H27.1609V74.7744H27.1443Z" fill="#9f96b0"/>
<path d="M29.0495 71.7088H29.6792V72.3052H29.6958C29.7124 72.2223 29.7621 72.1395 29.8118 72.0567C29.8615 71.9739 29.9444 71.9076 30.0272 71.8413C30.1101 71.7751 30.193 71.7254 30.2924 71.6757C30.3918 71.6426 30.4912 71.6094 30.5907 71.6094C30.6735 71.6094 30.7232 71.6094 30.7564 71.6094C30.7895 71.6094 30.8227 71.6094 30.8558 71.626V72.272C30.8061 72.272 30.7564 72.2555 30.7067 72.2555C30.657 72.2555 30.6072 72.2389 30.5575 72.2389C30.4415 72.2389 30.3421 72.2555 30.2261 72.3052C30.1267 72.3549 30.0438 72.4211 29.961 72.5039C29.8781 72.5868 29.8284 72.7027 29.7787 72.8352C29.729 72.9678 29.7124 73.1168 29.7124 73.2825V74.7402H29.033V71.7088H29.0495Z" fill="#9f96b0"/>
<path d="M34.8662 71.7089H35.3799V70.7812H36.0594V71.7089H36.6725V72.2224H36.0594V73.8624C36.0594 73.9286 36.0594 73.9949 36.0759 74.0446C36.0759 74.0943 36.0925 74.144 36.1256 74.1771C36.1422 74.2102 36.1754 74.2433 36.2251 74.2598C36.2748 74.2764 36.3245 74.2931 36.4074 74.2931C36.4571 74.2931 36.5068 74.2931 36.5565 74.2931C36.6062 74.2931 36.6559 74.2765 36.7056 74.2765V74.8065C36.6228 74.8065 36.5565 74.8231 36.4902 74.8231C36.4239 74.8231 36.3411 74.8397 36.2748 74.8397C36.0925 74.8397 35.9599 74.8231 35.8439 74.79C35.7279 74.7569 35.6451 74.7072 35.5954 74.6409C35.5291 74.5747 35.4959 74.4917 35.4628 74.3923C35.4462 74.293 35.4296 74.1771 35.4296 74.0611V72.2556H34.9159V71.7089H34.8662Z" fill="#9f96b0"/>
<path d="M40.9147 74.0941C40.9147 74.1769 40.9313 74.2432 40.9479 74.2763C40.9644 74.3095 41.0141 74.326 41.0804 74.326C41.097 74.326 41.1301 74.326 41.1467 74.326C41.1799 74.326 41.213 74.326 41.2461 74.3095V74.7733C41.2296 74.7733 41.1964 74.7898 41.1467 74.8064C41.1136 74.823 41.0639 74.823 41.0307 74.8395C40.9976 74.8395 40.9478 74.8561 40.9147 74.8561C40.8816 74.8561 40.8484 74.8561 40.8153 74.8561C40.6827 74.8561 40.5667 74.823 40.4673 74.7733C40.3678 74.7236 40.3181 74.6242 40.285 74.4751C40.1524 74.6076 39.9867 74.707 39.7879 74.7567C39.589 74.823 39.4067 74.8395 39.2244 74.8395C39.0918 74.8395 38.9593 74.823 38.8267 74.7898C38.6941 74.7567 38.5947 74.6905 38.4953 74.6242C38.3959 74.5579 38.313 74.4585 38.2633 74.3426C38.2136 74.2266 38.1804 74.0941 38.1804 73.945C38.1804 73.7628 38.2136 73.5972 38.2798 73.4812C38.3461 73.3653 38.4456 73.2659 38.5616 73.1996C38.6776 73.1334 38.7936 73.0837 38.9427 73.0505C39.0753 73.0174 39.2244 73.0008 39.3736 72.9843C39.4896 72.9677 39.6056 72.9511 39.7216 72.9346C39.8376 72.918 39.937 72.9014 40.0198 72.8849C40.1027 72.8683 40.169 72.8186 40.2187 72.7689C40.2684 72.7192 40.285 72.653 40.285 72.5536C40.285 72.4708 40.2684 72.3879 40.2187 72.3382C40.169 72.2885 40.1193 72.2388 40.0696 72.2057C40.0033 72.1726 39.937 72.156 39.8707 72.1395C39.7879 72.1229 39.7216 72.1229 39.6553 72.1229C39.473 72.1229 39.3073 72.156 39.1913 72.2388C39.0753 72.3217 38.9924 72.4376 38.9758 72.6033H38.2964C38.313 72.4045 38.3627 72.2388 38.4456 72.1063C38.5284 71.9738 38.6278 71.8744 38.7604 71.7916C38.893 71.7088 39.0421 71.6591 39.1913 71.6259C39.357 71.5928 39.5227 71.5762 39.6884 71.5762C39.8376 71.5762 39.9867 71.5928 40.1358 71.6259C40.285 71.6591 40.4176 71.7088 40.5336 71.775C40.6496 71.8413 40.749 71.9407 40.8153 72.0566C40.8816 72.1726 40.9147 72.3051 40.9147 72.4708V74.0941ZM40.2353 73.2493C40.1359 73.3156 40.0033 73.3653 39.8541 73.3653C39.705 73.3818 39.5559 73.3984 39.4067 73.4315C39.3404 73.4481 39.2576 73.4647 39.1913 73.4812C39.125 73.4978 39.0587 73.5309 39.009 73.564C38.9593 73.5972 38.9096 73.6469 38.893 73.7131C38.8598 73.7794 38.8433 73.8456 38.8433 73.9285C38.8433 74.0113 38.8599 74.061 38.9096 74.1107C38.9593 74.1604 39.009 74.2101 39.0753 74.2266C39.1416 74.2598 39.2078 74.2763 39.2741 74.2929C39.3404 74.3095 39.4067 74.3095 39.473 74.3095C39.5558 74.3095 39.6221 74.2929 39.7216 74.2763C39.8044 74.2598 39.8873 74.2266 39.9701 74.1769C40.053 74.1272 40.1193 74.061 40.169 73.9947C40.2187 73.9285 40.2518 73.8291 40.2518 73.7297V73.2493H40.2353Z" fill="#9f96b0"/>
<path d="M45.6876 74.6253C45.6876 75.0891 45.555 75.437 45.2899 75.6689C45.0247 75.9008 44.6601 76.0167 44.163 76.0167C44.0139 76.0167 43.8481 76.0002 43.699 75.9671C43.5499 75.9339 43.4007 75.8842 43.2681 75.8014C43.1356 75.7186 43.0361 75.6192 42.9367 75.5032C42.8539 75.3873 42.8041 75.2216 42.7876 75.056H43.467C43.4836 75.1554 43.5167 75.2215 43.5664 75.2878C43.6161 75.354 43.6659 75.3872 43.7321 75.4203C43.7984 75.4534 43.8647 75.4701 43.9476 75.4867C44.0304 75.5032 44.1133 75.5032 44.1961 75.5032C44.4779 75.5032 44.6767 75.437 44.7927 75.3045C44.9253 75.1719 44.975 74.9732 44.975 74.7247V74.2608H44.9584C44.859 74.4264 44.7264 74.559 44.5607 74.6584C44.395 74.7578 44.2127 74.8074 44.0304 74.8074C43.7819 74.8074 43.583 74.7577 43.4007 74.6749C43.235 74.5921 43.0859 74.4761 42.9699 74.327C42.8539 74.1779 42.771 74.0124 42.7213 73.8136C42.6716 73.6148 42.6384 73.416 42.6384 73.1841C42.6384 72.9854 42.6716 72.7866 42.7379 72.5878C42.8041 72.4056 42.887 72.2399 43.0196 72.0909C43.1356 71.9583 43.2847 71.8424 43.4504 71.7596C43.6161 71.6767 43.815 71.627 44.0304 71.627C44.2293 71.627 44.395 71.6602 44.5607 71.743C44.7264 71.8258 44.8424 71.9583 44.9419 72.124H44.9584V71.7099H45.6379V74.6253H45.6876ZM44.1796 74.2443C44.3287 74.2443 44.4613 74.2112 44.5607 74.1449C44.6601 74.0786 44.743 73.9958 44.8093 73.8964C44.8756 73.797 44.9253 73.6811 44.9584 73.5486C44.9916 73.416 45.0081 73.2835 45.0081 73.151C45.0081 73.0185 44.9916 72.886 44.9584 72.77C44.9253 72.6541 44.8756 72.5381 44.8093 72.4387C44.743 72.3393 44.6601 72.273 44.5607 72.2067C44.4613 72.157 44.3287 72.124 44.1796 72.124C44.0304 72.124 43.8979 72.1571 43.7984 72.2234C43.699 72.2896 43.6161 72.3725 43.5499 72.4718C43.4836 72.5712 43.4339 72.6872 43.4173 72.8197C43.3841 72.9522 43.3676 73.0682 43.3676 73.2007C43.3676 73.3332 43.3841 73.4492 43.4173 73.5651C43.4504 73.6811 43.5001 73.797 43.5664 73.8964C43.6327 73.9958 43.7156 74.0621 43.815 74.1283C43.9144 74.2112 44.047 74.2443 44.1796 74.2443Z" fill="#9f96b0"/>
<path d="M47.5769 70.5332H48.2563V74.7738H47.5769V70.5332Z" fill="#9f96b0"/>
<path d="M50.1951 70.5332H50.8745V71.1792H50.1951V70.5332ZM50.1951 71.7093H50.8745V74.7904H50.1951V71.7093Z" fill="#9f96b0"/>
<path d="M52.813 71.7099H53.4593V72.1571L53.4758 72.1737C53.5753 72.008 53.7078 71.8755 53.8736 71.7761C54.0393 71.6767 54.2216 71.627 54.4204 71.627C54.7518 71.627 55.017 71.7099 55.2158 71.8921C55.4147 72.0743 55.5141 72.3228 55.5141 72.6706V74.7744H54.8347V72.8363C54.8347 72.5878 54.7684 72.4221 54.6856 72.3062C54.5861 72.1902 54.437 72.1404 54.2381 72.1404C54.1221 72.1404 54.0227 72.157 53.9233 72.2067C53.8238 72.2564 53.7576 72.3062 53.6913 72.3725C53.625 72.4387 53.5753 72.5381 53.5421 72.6375C53.509 72.7369 53.4924 72.8363 53.4924 72.9522V74.7578H52.813V71.7099Z" fill="#9f96b0"/>
<path d="M57.9506 73.416C57.9506 73.532 57.9672 73.648 58.0003 73.7639C58.0335 73.8799 58.0832 73.9792 58.1495 74.062C58.2158 74.1448 58.2986 74.2111 58.398 74.2608C58.4975 74.3105 58.63 74.327 58.7626 74.327C58.9615 74.327 59.1272 74.2773 59.2432 74.1945C59.3592 74.1117 59.4586 73.9793 59.5083 73.8136H60.1546C60.1215 73.9793 60.0552 74.1282 59.9723 74.2608C59.8895 74.3933 59.7735 74.5093 59.6575 74.5922C59.5415 74.675 59.3923 74.7412 59.2432 74.7909C59.094 74.8406 58.9283 74.8572 58.7626 74.8572C58.514 74.8572 58.2986 74.824 58.1163 74.7411C57.934 74.6583 57.7683 74.559 57.6358 74.4099C57.5032 74.2609 57.4038 74.0952 57.3375 73.8964C57.2712 73.6977 57.238 73.4823 57.238 73.2504C57.238 73.0351 57.2712 72.8196 57.3375 72.6208C57.4038 72.422 57.5032 72.2565 57.6358 72.1074C57.7683 71.9583 57.9175 71.8424 58.0998 71.7596C58.282 71.6767 58.4809 71.627 58.7129 71.627C58.9615 71.627 59.1769 71.6767 59.3592 71.7761C59.558 71.8755 59.7072 72.008 59.8398 72.1737C59.9723 72.3393 60.0552 72.5381 60.1215 72.7535C60.1712 72.9688 60.1878 73.2007 60.1712 73.416H57.9506ZM59.5249 72.9688C59.5249 72.8693 59.4918 72.7534 59.4586 72.6541C59.4255 72.5547 59.3758 72.4718 59.3095 72.389C59.2432 72.3228 59.1603 72.2564 59.0775 72.2067C58.978 72.157 58.8786 72.1404 58.7626 72.1404C58.6466 72.1404 58.5306 72.157 58.4312 72.2067C58.3318 72.2564 58.2489 72.3062 58.1826 72.3725C58.1163 72.4387 58.05 72.5381 58.0169 72.6375C57.9672 72.7369 57.9506 72.8363 57.9506 72.9522H59.5249V72.9688Z" fill="#9f96b0"/>
<path d="M67.5948 74.6253C67.5948 75.0891 67.4622 75.437 67.1971 75.6689C66.9319 75.9008 66.5674 76.0167 66.0702 76.0167C65.9211 76.0167 65.7554 76.0002 65.6062 75.9671C65.4571 75.9339 65.3079 75.8842 65.1754 75.8014C65.0428 75.7186 64.9434 75.6192 64.8439 75.5032C64.7611 75.3873 64.7114 75.2216 64.6948 75.056H65.3742C65.3908 75.1554 65.4239 75.2215 65.4737 75.2878C65.5234 75.354 65.5731 75.3872 65.6394 75.4203C65.7057 75.4534 65.7719 75.4701 65.8548 75.4867C65.9377 75.5032 66.0205 75.5032 66.1034 75.5032C66.3851 75.5032 66.5839 75.437 66.6999 75.3045C66.8325 75.1719 66.8822 74.9732 66.8822 74.7247V74.2608H66.8657C66.7662 74.4264 66.6337 74.559 66.4679 74.6584C66.3022 74.7578 66.1199 74.8074 65.9377 74.8074C65.6891 74.8074 65.4902 74.7577 65.3079 74.6749C65.1422 74.5921 64.9931 74.4761 64.8771 74.327C64.7611 74.1779 64.6782 74.0124 64.6285 73.8136C64.5788 73.6148 64.5457 73.416 64.5457 73.1841C64.5457 72.9854 64.5788 72.7866 64.6451 72.5878C64.7114 72.4056 64.7942 72.2399 64.9268 72.0909C65.0428 71.9583 65.1919 71.8424 65.3577 71.7596C65.5234 71.6767 65.7222 71.627 65.9377 71.627C66.1365 71.627 66.3022 71.6602 66.4679 71.743C66.6337 71.8258 66.7497 71.9583 66.8491 72.124H66.8657V71.7099H67.5451V74.6253H67.5948ZM66.0868 74.2443C66.2359 74.2443 66.3685 74.2112 66.4679 74.1449C66.5674 74.0786 66.6502 73.9958 66.7165 73.8964C66.7828 73.797 66.8325 73.6811 66.8657 73.5486C66.8988 73.416 66.9154 73.2835 66.9154 73.151C66.9154 73.0185 66.8988 72.886 66.8657 72.77C66.8325 72.6541 66.7828 72.5381 66.7165 72.4387C66.6502 72.3393 66.5674 72.273 66.4679 72.2067C66.3685 72.157 66.2359 72.124 66.0868 72.124C65.9377 72.124 65.8051 72.1571 65.7057 72.2234C65.6062 72.2896 65.5234 72.3725 65.4571 72.4718C65.3908 72.5712 65.3411 72.6872 65.3245 72.8197C65.2914 72.9522 65.2748 73.0682 65.2748 73.2007C65.2748 73.3332 65.2914 73.4492 65.3245 73.5651C65.3577 73.6811 65.4074 73.797 65.4737 73.8964C65.5399 73.9958 65.6228 74.0621 65.7222 74.1283C65.8217 74.2112 65.9542 74.2443 66.0868 74.2443Z" fill="#9f96b0"/>
<path d="M70.8759 74.8737C70.6273 74.8737 70.4119 74.8407 70.213 74.7579C70.0141 74.6751 69.865 74.5591 69.7324 74.4266C69.5999 74.2775 69.5004 74.1118 69.4341 73.9131C69.3679 73.7143 69.3347 73.4989 69.3347 73.267C69.3347 73.0351 69.3679 72.8197 69.4341 72.6209C69.5004 72.4221 69.5999 72.2566 69.7324 72.1075C69.865 71.9584 70.0307 71.859 70.213 71.7762C70.4119 71.6934 70.6273 71.6602 70.8759 71.6602C71.1244 71.6602 71.3399 71.6934 71.5387 71.7762C71.7376 71.859 71.8867 71.975 72.0193 72.1075C72.1519 72.2566 72.2513 72.4221 72.3176 72.6209C72.3839 72.8197 72.417 73.0351 72.417 73.267C72.417 73.4989 72.3839 73.7309 72.3176 73.9131C72.2513 74.1118 72.1519 74.2775 72.0193 74.4266C71.8867 74.5757 71.721 74.6751 71.5387 74.7579C71.3399 74.8241 71.1244 74.8737 70.8759 74.8737ZM70.8759 74.3272C71.025 74.3272 71.1576 74.2941 71.2736 74.2278C71.3896 74.1615 71.4724 74.0787 71.5553 73.9793C71.6216 73.8799 71.6713 73.764 71.721 73.6315C71.7541 73.4989 71.7707 73.3664 71.7707 73.2339C71.7707 73.1014 71.7541 72.9689 71.721 72.8363C71.6879 72.7038 71.6381 72.5878 71.5553 72.4884C71.489 72.389 71.3896 72.3063 71.2736 72.24C71.1576 72.1737 71.025 72.1406 70.8759 72.1406C70.7267 72.1406 70.5941 72.1737 70.4781 72.24C70.3621 72.3063 70.2793 72.389 70.1964 72.4884C70.1301 72.5878 70.0804 72.7038 70.0307 72.8363C69.981 72.9689 69.981 73.1014 69.981 73.2339C69.981 73.3664 69.9976 73.4989 70.0307 73.6315C70.0639 73.764 70.1136 73.8799 70.1964 73.9793C70.2627 74.0787 70.3621 74.1615 70.4781 74.2278C70.5941 74.2941 70.7267 74.3272 70.8759 74.3272Z" fill="#9f96b0"/>
<path d="M74.7201 73.416C74.7201 73.532 74.7367 73.648 74.7699 73.7639C74.803 73.8799 74.8527 73.9792 74.919 74.062C74.9853 74.1448 75.0681 74.2111 75.1676 74.2608C75.267 74.3105 75.3996 74.327 75.5321 74.327C75.731 74.327 75.8967 74.2773 76.0127 74.1945C76.1287 74.1117 76.2281 73.9793 76.2779 73.8136H76.9241C76.891 73.9793 76.8247 74.1282 76.7419 74.2608C76.659 74.3933 76.543 74.5093 76.427 74.5922C76.311 74.675 76.1619 74.7412 76.0127 74.7909C75.8636 74.8406 75.6979 74.8572 75.5321 74.8572C75.2836 74.8572 75.0681 74.824 74.8859 74.7411C74.7036 74.6583 74.5379 74.559 74.4053 74.4099C74.2727 74.2609 74.1733 74.0952 74.107 73.8964C74.0407 73.6977 74.0076 73.4823 74.0076 73.2504C74.0076 73.0351 74.0407 72.8196 74.107 72.6208C74.1733 72.422 74.2727 72.2565 74.4053 72.1074C74.5379 71.9583 74.687 71.8424 74.8693 71.7596C75.0516 71.6767 75.2504 71.627 75.4824 71.627C75.731 71.627 75.9464 71.6767 76.1287 71.7761C76.3276 71.8755 76.4767 72.008 76.6093 72.1737C76.7419 72.3393 76.8247 72.5381 76.891 72.7535C76.9407 72.9688 76.9573 73.2007 76.9407 73.416H74.7201ZM76.2944 72.9688C76.2944 72.8693 76.2613 72.7534 76.2281 72.6541C76.195 72.5547 76.1453 72.4718 76.079 72.389C76.0127 72.3228 75.9299 72.2564 75.847 72.2067C75.7476 72.157 75.6481 72.1404 75.5321 72.1404C75.4161 72.1404 75.3001 72.157 75.2007 72.2067C75.1013 72.2564 75.0184 72.3062 74.9521 72.3725C74.8859 72.4387 74.8196 72.5381 74.7864 72.6375C74.7367 72.7369 74.7201 72.8363 74.7201 72.9522H76.2944V72.9688Z" fill="#9f96b0"/>
<path d="M79.195 73.7968C79.211 73.9956 79.294 74.1281 79.427 74.2109C79.559 74.2937 79.709 74.327 79.891 74.327C79.957 74.327 80.023 74.3269 80.106 74.3103C80.189 74.2937 80.272 74.2772 80.338 74.2606C80.405 74.2275 80.471 74.1943 80.521 74.1447C80.57 74.095 80.587 74.0287 80.587 73.9293C80.587 73.8465 80.554 73.7638 80.487 73.7141C80.421 73.6644 80.355 73.6146 80.255 73.5814C80.156 73.5483 80.057 73.5152 79.941 73.4986C79.825 73.4821 79.709 73.4489 79.576 73.4158C79.443 73.3827 79.327 73.3495 79.211 73.3164C79.095 73.2833 78.996 73.217 78.897 73.1508C78.797 73.0845 78.731 73.0017 78.681 72.8857C78.631 72.7863 78.598 72.6538 78.598 72.4882C78.598 72.3225 78.631 72.19 78.714 72.074C78.797 71.9581 78.897 71.8753 79.029 71.7924C79.162 71.7262 79.294 71.6765 79.443 71.6433C79.593 71.6102 79.742 71.5938 79.874 71.5938C80.04 71.5938 80.189 71.6102 80.322 71.6433C80.471 71.6765 80.603 71.7262 80.719 71.809C80.835 71.8918 80.935 71.9746 81.018 72.1072C81.101 72.2231 81.15 72.3722 81.167 72.5378H80.454C80.421 72.3722 80.355 72.2728 80.239 72.2066C80.123 72.1569 79.99 72.1237 79.841 72.1237C79.791 72.1237 79.742 72.1238 79.675 72.1404C79.609 72.1404 79.543 72.1569 79.493 72.19C79.443 72.2065 79.394 72.2397 79.344 72.2894C79.311 72.3391 79.278 72.3888 79.278 72.455C79.278 72.5378 79.311 72.6041 79.361 72.6538C79.41 72.7035 79.493 72.7532 79.593 72.7863C79.692 72.8195 79.791 72.8526 79.907 72.8691C80.023 72.8857 80.156 72.9188 80.272 72.952C80.388 72.9851 80.521 73.0182 80.637 73.0514C80.753 73.0845 80.869 73.1508 80.951 73.217C81.051 73.2833 81.117 73.3661 81.183 73.4655C81.233 73.5649 81.266 73.6974 81.266 73.8465C81.266 74.0287 81.217 74.1778 81.134 74.3103C81.051 74.4428 80.935 74.5422 80.802 74.625C80.67 74.7079 80.521 74.7576 80.355 74.7907C80.189 74.8238 80.023 74.8404 79.874 74.8404C79.675 74.8404 79.493 74.8238 79.344 74.7741C79.178 74.7244 79.029 74.6582 78.913 74.5753C78.797 74.4925 78.698 74.3766 78.631 74.244C78.565 74.1115 78.532 73.9459 78.515 73.7637H79.195V73.7968Z" fill="#9f96b0"/>
<path d="M85.806 70.5332H86.486V72.1068H86.502C86.585 71.9743 86.718 71.8584 86.867 71.759C87.033 71.6596 87.215 71.6265 87.414 71.6265C87.745 71.6265 88.01 71.7093 88.209 71.8915C88.408 72.0737 88.508 72.3222 88.508 72.6701V74.7738H87.828V72.8357C87.828 72.5872 87.762 72.4216 87.679 72.3056C87.58 72.1897 87.43 72.14 87.232 72.14C87.116 72.14 87.016 72.1565 86.917 72.2062C86.817 72.2559 86.751 72.3056 86.685 72.3719C86.618 72.4381 86.569 72.5375 86.536 72.6369C86.502 72.7363 86.486 72.8357 86.486 72.9517V74.7572H85.806V70.5332Z" fill="#9f96b0"/>
<path d="M90.944 73.416C90.944 73.532 90.961 73.648 90.994 73.7639C91.027 73.8799 91.077 73.9792 91.143 74.062C91.209 74.1448 91.292 74.2111 91.391 74.2608C91.491 74.3105 91.623 74.327 91.756 74.327C91.955 74.327 92.121 74.2773 92.237 74.1945C92.353 74.1117 92.452 73.9793 92.502 73.8136H93.148C93.115 73.9793 93.049 74.1282 92.966 74.2608C92.883 74.3933 92.767 74.5093 92.651 74.5922C92.535 74.675 92.386 74.7412 92.237 74.7909C92.087 74.8406 91.922 74.8572 91.756 74.8572C91.507 74.8572 91.292 74.824 91.11 74.7411C90.927 74.6583 90.762 74.559 90.629 74.4099C90.497 74.2609 90.397 74.0952 90.331 73.8964C90.265 73.6977 90.231 73.4823 90.231 73.2504C90.231 73.0351 90.265 72.8196 90.331 72.6208C90.397 72.422 90.497 72.2565 90.629 72.1074C90.762 71.9583 90.911 71.8424 91.093 71.7596C91.275 71.6767 91.474 71.627 91.706 71.627C91.955 71.627 92.17 71.6767 92.353 71.7761C92.551 71.8755 92.701 72.008 92.833 72.1737C92.966 72.3393 93.049 72.5381 93.115 72.7535C93.165 72.9688 93.181 73.2007 93.165 73.416H90.944ZM92.518 72.9688C92.518 72.8693 92.485 72.7534 92.452 72.6541C92.419 72.5547 92.369 72.4718 92.303 72.389C92.237 72.3228 92.154 72.2564 92.071 72.2067C91.971 72.157 91.872 72.1404 91.756 72.1404C91.64 72.1404 91.524 72.157 91.425 72.2067C91.325 72.2564 91.242 72.3062 91.176 72.3725C91.11 72.4387 91.043 72.5381 91.01 72.6375C90.961 72.7369 90.944 72.8363 90.944 72.9522H92.518V72.9688Z" fill="#9f96b0"/>
<path d="M94.904 71.7087H95.534V72.3051H95.55C95.567 72.2223 95.617 72.1394 95.666 72.0566C95.716 71.9738 95.799 71.9075 95.882 71.8413C95.965 71.775 96.047 71.7253 96.147 71.6756C96.246 71.6425 96.346 71.6094 96.445 71.6094C96.528 71.6094 96.578 71.6094 96.611 71.6094C96.644 71.6094 96.677 71.6094 96.71 71.6259V72.2719C96.661 72.2719 96.611 72.2554 96.561 72.2554C96.511 72.2554 96.462 72.2388 96.412 72.2388C96.296 72.2388 96.197 72.2554 96.081 72.3051C95.981 72.3548 95.898 72.421 95.815 72.5039C95.733 72.5867 95.683 72.7026 95.633 72.8352C95.583 72.9677 95.567 73.1168 95.567 73.2824V74.7401H94.887V71.7087H94.904Z" fill="#9f96b0"/>
<path d="M98.6161 73.416C98.6161 73.532 98.6331 73.648 98.6661 73.7639C98.6991 73.8799 98.7491 73.9792 98.8151 74.062C98.8821 74.1448 98.9641 74.2111 99.0641 74.2608C99.1631 74.3105 99.2961 74.327 99.4281 74.327C99.6271 74.327 99.7931 74.2773 99.909 74.1945C100.025 74.1117 100.124 73.9793 100.174 73.8136H100.82C100.787 73.9793 100.721 74.1282 100.638 74.2608C100.555 74.3933 100.439 74.5093 100.323 74.5922C100.207 74.675 100.058 74.7412 99.909 74.7909C99.76 74.8406 99.5941 74.8572 99.4281 74.8572C99.1801 74.8572 98.9641 74.824 98.7821 74.7411C98.6001 74.6583 98.4341 74.559 98.3021 74.4099C98.1691 74.2609 98.0701 74.0952 98.0031 73.8964C97.9371 73.6977 97.9041 73.4823 97.9041 73.2504C97.9041 73.0351 97.9371 72.8196 98.0031 72.6208C98.0701 72.422 98.1691 72.2565 98.3021 72.1074C98.4341 71.9583 98.5831 71.8424 98.7661 71.7596C98.9481 71.6767 99.1471 71.627 99.3791 71.627C99.6271 71.627 99.8431 71.6767 100.025 71.7761C100.224 71.8755 100.373 72.008 100.506 72.1737C100.638 72.3393 100.721 72.5381 100.787 72.7535C100.837 72.9688 100.854 73.2007 100.837 73.416H98.6161ZM100.207 72.9688C100.207 72.8693 100.174 72.7534 100.141 72.6541C100.108 72.5547 100.058 72.4718 99.9921 72.389C99.9261 72.3228 99.8431 72.2564 99.7601 72.2067C99.6601 72.157 99.5611 72.1404 99.4451 72.1404C99.3291 72.1404 99.2131 72.157 99.1141 72.2067C99.0141 72.2564 98.9311 72.3062 98.8651 72.3725C98.7991 72.4387 98.7321 72.5381 98.6991 72.6375C98.6501 72.7369 98.6331 72.8363 98.6331 72.9522H100.207V72.9688Z" fill="#9f96b0"/>
</g>
</svg>