<svg width="160" height="80" viewBox="0 0 160 80" fill="none" xmlns="http://www.w3.org/2000/svg">
<path d="M65.9719 53.3835L64.1897 50.3283L50.3565 26.3535H46.877L62.45 53.3835H65.9719Z" fill="#A6B5CB"/>
<path d="M79.9319 53.3835L78.1921 50.3283L76.4524 47.3156L74.6702 44.3028L72.9304 41.2901L71.1906 38.2349L64.3164 26.3535H60.8369L69.4509 41.2901L71.1906 44.3028L72.9304 47.3156L74.6702 50.3283L76.4524 53.3835H79.9319Z" fill="#A6B5CB"/>
<path d="M85.1507 50.3283L83.4109 47.3156L81.6711 44.3028L79.9314 41.2901L78.1916 38.2349L76.4519 35.2221L74.6697 32.2093L71.3174 26.3535H67.8379L72.9299 35.2221L76.4519 41.2901L78.1916 44.3028L79.9314 47.3156L81.6711 50.3283L83.4109 53.3835H86.8904L85.1507 50.3283Z" fill="#A6B5CB"/>
<path d="M92.7041 7.04688H89.1821L76.4521 29.1547L78.1919 32.1674L92.7041 7.04688Z" fill="#A6B5CB"/>
<path d="M69.4504 53.3835H72.9299L71.1902 50.3283L69.4504 47.3156L67.7106 44.3028L57.3569 26.3535H53.835L65.9709 47.3156L67.7106 50.3283L69.4504 53.3835Z" fill="#A6B5CB"/>
<path d="M81.6717 38.1929L99.6634 7.04688H96.1838L79.9319 35.1802L79.9743 35.2226L81.6717 38.1929Z" fill="#A6B5CB"/>
<path d="M85.1939 44.2609L106.665 7.04688H103.186L83.4541 41.2481V41.2906L85.1939 44.2609Z" fill="#A6B5CB"/>
<path d="M113.667 7.04688H110.145L86.9336 47.2737V47.3161L88.6734 50.3288L113.667 7.04688Z" fill="#A6B5CB"/>
<path d="M49.0828 65.9855C48.7433 66.2825 48.2766 66.4947 47.7674 66.4947C46.7065 66.4947 45.8154 65.646 45.8154 64.5428C45.8154 63.4819 46.7065 62.5908 47.7674 62.5908C48.2766 62.5908 48.7433 62.803 49.0828 63.1L50.0163 62.1665C49.4223 61.6149 48.6585 61.2754 47.7674 61.2754C45.9852 61.2754 44.5 62.7181 44.5 64.5428C44.5 66.3674 45.9427 67.8101 47.7674 67.8101C48.616 67.8101 49.4223 67.4707 50.0163 66.919L49.0828 65.9855Z" fill="#A6B5CB"/>
<path d="M58.5879 61.3184C56.8057 61.3184 55.3206 62.7611 55.3206 64.5857C55.3206 66.4103 56.7633 67.8531 58.5879 67.8531C60.3701 67.8531 61.8553 66.4103 61.8553 64.5857C61.8553 62.7611 60.4125 61.3184 58.5879 61.3184ZM58.5879 66.5377C57.5271 66.5377 56.636 65.6466 56.636 64.5857C56.636 63.5249 57.5271 62.6338 58.5879 62.6338C59.6487 62.6338 60.5398 63.5249 60.5398 64.5857C60.5398 65.6466 59.6912 66.5377 58.5879 66.5377Z" fill="#A6B5CB"/>
<path d="M70.8936 66.0709L68.9841 61.3184H67.6262V67.8106H68.8992V64.5857L70.2147 67.8106H71.615L72.9304 64.5857V67.8106H74.2034V61.3184H72.8031L70.8936 66.0709Z" fill="#A6B5CB"/>
<path d="M81.7992 61.3184H79.9746V67.8106H81.29V65.2222H81.8417C82.9025 65.2222 83.7936 64.3311 83.7936 63.2703C83.7512 62.2095 82.8601 61.3184 81.7992 61.3184ZM81.7992 63.9068H81.29V62.5914H81.7992C82.1387 62.5914 82.4357 62.8884 82.4357 63.2279C82.4357 63.6098 82.1387 63.9068 81.7992 63.9068Z" fill="#A6B5CB"/>
<path d="M90.9647 61.3184L88.6309 67.8106H90.0312L90.7101 65.986H92.7045L93.3834 67.8106H94.7837L92.4499 61.3184H90.9647ZM91.1344 64.713L91.6436 63.2279L92.1953 64.713H91.1344Z" fill="#A6B5CB"/>
<path d="M105.731 61.3184H104.416V65.6466L101.827 61.3184H100.3V67.8106H101.573V63.4825L104.204 67.8106H105.731V61.3184Z" fill="#A6B5CB"/>
<path d="M114.302 67.8106V64.713L115.999 61.3184H114.557L113.623 63.1006L112.732 61.3184H111.289L112.987 64.713V67.8106H114.302Z" fill="#A6B5CB"/>
<path d="M44.5 70.9932H45.2638V73.3695H45.6881V70.9932H46.4519V70.6113H44.5V70.9932Z" fill="#A6B5CB"/>
<path d="M49.5064 70.6113L48.488 73.3695H48.9124L49.1245 72.733H50.1854L50.3975 73.3695H50.8219L49.8035 70.6113H49.5064ZM49.2518 72.3935L49.6337 71.2054L50.0156 72.3935H49.2518Z" fill="#A6B5CB"/>
<path d="M54.3019 72.2243H54.8535V72.3516C54.8535 72.5213 54.8111 72.6486 54.6838 72.7759C54.5989 72.9032 54.4292 72.9457 54.3019 72.9457C54.217 72.9457 54.1321 72.9457 54.0473 72.9033C53.9624 72.8608 53.92 72.8184 53.8775 72.7759C53.8351 72.7335 53.7926 72.6486 53.7502 72.5638C53.7502 72.4789 53.7078 72.2667 53.7078 72.0121C53.7078 71.7575 53.7078 71.5454 53.7502 71.4605C53.7502 71.3756 53.7927 71.2908 53.8775 71.2483C53.92 71.2059 53.9624 71.1635 54.0473 71.1211C54.1321 71.0786 54.217 71.0786 54.3019 71.0786C54.4292 71.0786 54.5565 71.1211 54.6413 71.2059C54.7262 71.2908 54.811 71.3757 54.811 71.503H55.2354C55.1929 71.2908 55.0657 71.0786 54.9384 70.9089C54.7686 70.7392 54.5565 70.6543 54.3019 70.6543C54.0897 70.6543 53.9199 70.6967 53.7502 70.824C53.6229 70.9089 53.4956 71.0362 53.4108 71.1635C53.3683 71.2484 53.3259 71.3332 53.3259 71.4181C53.3259 71.5454 53.2834 71.7576 53.2834 72.0546C53.2834 72.3516 53.2834 72.5638 53.3259 72.6911C53.3259 72.7335 53.3683 72.8184 53.3683 72.8184C53.3683 72.8608 53.4108 72.9032 53.4108 72.9457C53.4956 73.073 53.5805 73.2003 53.7502 73.2851C53.8775 73.37 54.0897 73.4549 54.3019 73.4549C54.5989 73.4549 54.811 73.37 54.9808 73.1578C55.1505 72.9881 55.2778 72.7335 55.2778 72.4789V71.9273H54.3019V72.2243Z" fill="#A6B5CB"/>
<path d="M58.5034 70.6113H58.0791V73.3695H59.8613V72.9876H58.5034V70.6113Z" fill="#A6B5CB"/>
<path d="M63.0015 70.6113H62.5771V73.3695H63.0015V70.6113Z" fill="#A6B5CB"/>
<path d="M67.5406 72.5633L66.2677 70.6113H65.8857V73.3695H66.3101V71.4176L67.5406 73.3695H67.965V70.6113H67.5406V72.5633Z" fill="#A6B5CB"/>
<path d="M70.8518 73.3695H72.634V72.9876H71.2761V72.1814H72.4218V71.7995H71.2761V70.9932H72.634V70.6113H70.8518V73.3695Z" fill="#A6B5CB"/>
<path d="M79.4647 72.2243H80.0163V72.3516C80.0163 72.5213 79.9739 72.6486 79.8466 72.7759C79.7617 72.9032 79.592 72.9457 79.4647 72.9457C79.3798 72.9457 79.295 72.9457 79.2101 72.9032C79.1252 72.8608 79.0828 72.8184 79.0404 72.7759C78.9979 72.7335 78.9555 72.6486 78.9131 72.5638C78.9131 72.4789 78.8706 72.2667 78.8706 72.0121C78.8706 71.7575 78.8706 71.5454 78.9131 71.4605C78.9131 71.3756 78.9555 71.2908 79.0404 71.2483C79.0828 71.2059 79.1252 71.1635 79.2101 71.121C79.295 71.0786 79.3798 71.0786 79.4647 71.0786C79.592 71.0786 79.7193 71.121 79.8042 71.2059C79.889 71.2908 79.9739 71.3756 79.9739 71.5029H80.3982C80.3558 71.2908 80.2285 71.0786 80.1012 70.9089C79.9315 70.7391 79.7193 70.6543 79.4647 70.6543C79.2525 70.6543 79.0828 70.6967 78.9131 70.824C78.7858 70.9089 78.6585 71.0362 78.5736 71.1635C78.5312 71.2483 78.4887 71.3332 78.4887 71.4181C78.4887 71.5454 78.4463 71.7575 78.4463 72.0546C78.4463 72.3516 78.4463 72.5638 78.4887 72.6911C78.4887 72.7335 78.5312 72.8184 78.5312 72.8184C78.5312 72.8608 78.5736 72.9032 78.5736 72.9457C78.6585 73.073 78.7433 73.2003 78.9131 73.2851C79.0404 73.37 79.2525 73.4549 79.4647 73.4549C79.7617 73.4549 79.9739 73.37 80.1436 73.1578C80.3134 72.9881 80.4407 72.7335 80.4407 72.4789V71.9273H79.4647V72.2243Z" fill="#A6B5CB"/>
<path d="M85.0245 71.0776C84.9397 70.9503 84.8548 70.823 84.7275 70.7382C84.6002 70.6533 84.388 70.5684 84.1759 70.5684C83.9637 70.5684 83.794 70.6109 83.6242 70.7382C83.4969 70.823 83.3696 70.9503 83.2848 71.0776C83.2423 71.1625 83.1999 71.2474 83.1999 71.3322C83.1999 71.4595 83.1575 71.6717 83.1575 71.9687C83.1575 72.2658 83.1575 72.4779 83.1999 72.6052C83.1999 72.6477 83.2423 72.7325 83.2423 72.7325C83.2423 72.775 83.2848 72.8174 83.2848 72.8598C83.3696 72.9871 83.4545 73.1144 83.6242 73.1993C83.7515 73.2842 83.9637 73.369 84.1759 73.369C84.388 73.369 84.5578 73.3266 84.7275 73.1993C84.8548 73.1144 84.9821 72.9871 85.0245 72.8598C85.067 72.775 85.1094 72.6901 85.1094 72.6052C85.1094 72.4779 85.1518 72.2658 85.1518 71.9687C85.1518 71.6293 85.1518 71.4171 85.1094 71.3322C85.1094 71.2474 85.067 71.1625 85.0245 71.0776ZM84.6851 72.5204C84.6851 72.6052 84.6426 72.6901 84.5578 72.7325C84.5153 72.775 84.4729 72.8174 84.388 72.8598C84.3032 72.9023 84.2183 72.9023 84.1334 72.9023C84.0486 72.9023 83.9637 72.9023 83.8788 72.8598C83.794 72.8174 83.7515 72.775 83.7091 72.7325C83.6667 72.6901 83.6242 72.6052 83.5818 72.5204C83.5818 72.4355 83.5394 72.2233 83.5394 71.9687C83.5394 71.7141 83.5394 71.502 83.5818 71.4171C83.5818 71.3322 83.6242 71.2474 83.7091 71.2049C83.7515 71.1625 83.794 71.1201 83.8788 71.0776C83.9637 71.0352 84.0486 71.0352 84.1334 71.0352C84.2183 71.0352 84.3032 71.0776 84.388 71.0776C84.4729 71.1201 84.5153 71.1625 84.5578 71.2049C84.6002 71.2474 84.6426 71.3322 84.6851 71.4171C84.6851 71.502 84.7275 71.7141 84.7275 71.9687C84.7275 72.2658 84.7275 72.4355 84.6851 72.5204Z" fill="#A6B5CB"/>
<path d="M87.9509 73.3695H89.7331V72.9876H88.3753V72.1814H89.521V71.7995H88.3753V70.9932H89.7331V70.6113H87.9509V73.3695Z" fill="#A6B5CB"/>
<path d="M93.4679 71.7995C93.3406 71.7995 93.2133 71.757 93.1708 71.757C93.0435 71.7146 92.9162 71.6722 92.8738 71.6297C92.8314 71.5449 92.789 71.5024 92.789 71.4176C92.789 71.2903 92.8314 71.2054 92.9163 71.1205C93.0011 71.0357 93.1284 71.0357 93.2557 71.0357C93.5103 71.0357 93.7225 71.1205 93.9346 71.2478L94.1468 70.9084C93.8922 70.7386 93.5952 70.6113 93.2557 70.6113C92.9587 70.6113 92.7465 70.6962 92.5768 70.8235C92.4071 70.9508 92.3222 71.163 92.3222 71.4176C92.3222 71.6297 92.407 71.7995 92.5343 71.9268C92.6616 72.0541 92.8314 72.1389 93.086 72.1814C93.2133 72.1814 93.3406 72.2238 93.4679 72.2238C93.7225 72.2662 93.8498 72.3935 93.8073 72.6057C93.8073 72.8603 93.6376 72.9876 93.2557 72.9876C92.9587 72.9876 92.7041 72.9027 92.4919 72.733L92.2373 73.03C92.5343 73.2846 92.8738 73.4119 93.2981 73.4119C93.9346 73.4119 94.2317 73.1573 94.2741 72.6057C94.2741 72.3935 94.2317 72.2238 94.1044 72.0965C93.9346 71.9268 93.7225 71.8419 93.4679 71.7995Z" fill="#A6B5CB"/>
<path d="M101.742 71.7995H100.639V70.6113H100.257V73.3695H100.639V72.1814H101.742V73.3695H102.166V70.6113H101.742V71.7995Z" fill="#A6B5CB"/>
<path d="M105.095 73.3695H106.834V72.9876H105.477V72.1814H106.622V71.7995H105.477V70.9932H106.834V70.6113H105.095V73.3695Z" fill="#A6B5CB"/>
<path d="M111.459 71.3751C111.459 71.1205 111.374 70.9084 111.204 70.7811C111.077 70.6538 110.865 70.6113 110.653 70.6113H109.592V73.3695H110.016V72.1814H110.568L111.12 73.3695H111.629L110.992 72.1389C111.289 72.0116 111.459 71.757 111.459 71.3751ZM109.974 71.7995V70.9508H110.61C110.738 70.9508 110.865 70.9932 110.907 71.0357C110.992 71.1205 111.035 71.2054 111.035 71.3327C111.035 71.46 110.992 71.5449 110.907 71.6297C110.823 71.7146 110.695 71.757 110.568 71.757H109.974V71.7995Z" fill="#A6B5CB"/>
<path d="M114.218 73.3695H116V72.9876H114.642V72.1814H115.788V71.7995H114.642V70.9932H116V70.6113H114.218V73.3695Z" fill="#A6B5CB"/>
</svg>
