<svg width="160" height="80" viewBox="0 0 160 80" fill="none" xmlns="http://www.w3.org/2000/svg">
<path d="M37.8612 32.6504L32.1848 38.3057L34.3705 40.4833L40.0796 34.828L37.8612 32.6504Z" fill="#A6B5CB"/>
<path d="M26.3786 44.0918L20.7021 49.7471L22.8879 51.9572L28.5643 46.2694L26.3786 44.0918Z" fill="#A6B5CB"/>
<path d="M30.7828 36.9084L36.4592 31.2206L34.2735 29.043L28.5645 34.6983L30.7828 36.9084Z" fill="#A6B5CB"/>
<path d="M24.9749 42.6945L22.7565 40.4844L17.0801 46.1722L19.2658 48.3499L24.9749 42.6945Z" fill="#A6B5CB"/>
<path d="M24.9749 38.3057L19.2658 32.6504L17.0801 34.828L22.7565 40.4833L24.9749 38.3057Z" fill="#A6B5CB"/>
<path d="M26.3786 36.9084L28.5643 34.6983L22.8879 29.043L20.7021 31.2206L26.3786 36.9084Z" fill="#A6B5CB"/>
<path d="M32.1848 42.6945L37.8612 48.3499L40.0796 46.1722L34.3705 40.4844L32.1848 42.6945Z" fill="#A6B5CB"/>
<path d="M36.4592 49.7471L30.7828 44.0918L28.5645 46.2694L34.2735 51.9572L36.4592 49.7471Z" fill="#A6B5CB"/>
<path d="M36.4591 54.1346L34.2733 51.957L28.5643 57.6123L22.8879 51.957L20.7021 54.1346L28.5643 62.0001L36.4591 54.1346Z" fill="#A6B5CB"/>
<path d="M17.0805 34.828L14.8948 32.6504L7 40.4833L14.8948 48.3487L17.0805 46.1711L11.4041 40.4833L17.0805 34.828Z" fill="#A6B5CB"/>
<path d="M42.2651 32.6504L40.0793 34.828L45.7558 40.4833L40.0793 46.1711L42.2651 48.3487L50.1599 40.4833L42.2651 32.6504Z" fill="#A6B5CB"/>
<path d="M34.2733 29.043L36.4591 26.8654L28.5643 19L20.7021 26.8654L22.8879 29.043L28.5643 23.3877L34.2733 29.043Z" fill="#A6B5CB"/>
<path d="M67.6872 40.6041C68.38 40.052 68.9341 39.2237 69.1419 38.1884V38.1194L67.6872 37.7743V37.8433C67.4794 38.6025 67.2023 39.2238 66.7173 39.6379C66.2324 40.052 65.6089 40.259 64.916 40.259C64.3618 40.259 63.8076 40.121 63.3227 39.8449C62.8378 39.5688 62.4913 39.0857 62.2141 38.5335C61.937 37.9123 61.8679 37.2221 61.8679 36.4629C61.8679 35.8417 61.9371 35.2206 62.145 34.6684C62.3528 34.1162 62.6992 33.6331 63.1841 33.288C63.6691 32.9429 64.2925 32.8048 64.9853 32.8048C65.6088 32.8048 66.163 32.9429 66.5787 33.288C66.9943 33.5641 67.3407 34.0472 67.5486 34.7374V34.8064L69.0035 34.4613V34.3923C68.7264 33.495 68.2413 32.8048 67.5486 32.3217C66.8558 31.8385 66.0245 31.5625 65.0546 31.5625C64.154 31.5625 63.392 31.7695 62.6299 32.1146C61.9371 32.5288 61.3136 33.0809 60.9672 33.8401C60.5516 34.5994 60.3438 35.4966 60.3438 36.4629C60.3438 37.3602 60.5515 38.2575 60.8979 39.0857C61.2443 39.914 61.7986 40.5351 62.4221 40.9492C63.1149 41.3634 63.9462 41.5704 65.0546 41.5704C66.0938 41.4324 66.9944 41.1563 67.6872 40.6041Z" fill="#A6B5CB"/>
<path d="M82.6498 39.0851C83.0655 38.3258 83.2733 37.4286 83.2733 36.4623C83.2733 35.496 83.0655 34.6677 82.7191 33.8395C82.3034 33.0803 81.7492 32.4591 81.0564 32.045C80.2943 31.6309 79.463 31.4238 78.5624 31.4238C77.1768 31.4238 75.9991 31.9069 75.0985 32.8042C74.1979 33.7015 73.7822 35.0128 73.7822 36.6003C73.7822 37.4286 73.9901 38.2568 74.3364 39.016C74.6828 39.7753 75.3063 40.3965 75.9991 40.8106C76.7612 41.2247 77.5925 41.5008 78.4931 41.5008C79.3937 41.5008 80.1558 41.2937 80.9179 40.8796C81.6107 40.4655 82.2342 39.8443 82.6498 39.0851ZM78.4931 40.1894C77.5925 40.1894 76.7612 39.8443 76.1377 39.2231C75.5142 38.6019 75.2371 37.7047 75.2371 36.5313C75.2371 35.1509 75.5835 34.1156 76.207 33.4944C76.8305 32.8732 77.5925 32.5971 78.4931 32.5971C79.1166 32.5971 79.6709 32.7352 80.2251 33.0803C80.71 33.3564 81.1257 33.8395 81.3335 34.3917C81.6106 34.9438 81.7492 35.634 81.7492 36.3933C81.7492 37.5666 81.4721 38.5329 80.8486 39.1541C80.2251 39.8443 79.3937 40.1894 78.4931 40.1894Z" fill="#A6B5CB"/>
<path d="M97.754 31.6992H96.3684V41.431H97.754V31.6992Z" fill="#A6B5CB"/>
<path d="M93.668 41.4323L95.8849 35.2895V31.8385L93.5294 38.4645C93.3216 39.0166 93.1831 39.4308 93.1138 39.7759L92.6981 38.6025L90.3427 31.7695H90.2041V35.2895L92.3517 41.5014H93.668V41.4323Z" fill="#A6B5CB"/>
<path d="M89.6492 31.6992H88.2637V41.431H89.6492V31.6992Z" fill="#A6B5CB"/>
<path d="M109.6 36.6686C110.155 36.1165 110.432 35.3572 110.432 34.529C110.432 34.0458 110.362 33.5627 110.155 33.2176C109.947 32.8035 109.67 32.4584 109.323 32.2513C108.977 32.0442 108.561 31.8372 108.076 31.7682C107.73 31.6991 107.245 31.6992 106.552 31.6992H104.751V33.0105H106.621C107.176 33.0105 107.591 33.0105 107.799 33.0796C108.146 33.1486 108.353 33.3556 108.561 33.6317C108.769 33.9078 108.838 34.2529 108.838 34.598C108.838 35.1502 108.7 35.4953 108.353 35.8404C108.007 36.1165 107.453 36.2545 106.621 36.2545H104.682V37.5659H106.621C108.076 37.5659 109.115 37.2898 109.6 36.6686Z" fill="#A6B5CB"/>
<path d="M104.267 31.6992H102.812V41.431H104.267V31.6992Z" fill="#A6B5CB"/>
<path d="M120.825 31.6992H119.301L115.49 41.431H117.014L117.43 40.3267L118.538 37.3588L118.746 36.7376L119.578 34.598C119.785 34.1149 119.924 33.6317 119.993 33.1486C120.132 33.6317 120.34 34.1839 120.617 34.8051L121.587 37.3588H119.093L118.677 38.5321H122.072L123.18 41.431H124.843L120.825 31.6992Z" fill="#A6B5CB"/>
<path d="M136.203 38.9463V41.431H137.658V31.6992H136.272V39.0153L136.203 38.9463Z" fill="#A6B5CB"/>
<path d="M131.216 31.6992H129.83V41.431H131.216V31.6992Z" fill="#A6B5CB"/>
<path d="M135.718 38.1883L131.7 32.3906V34.8064L135.718 40.6731V38.1883Z" fill="#A6B5CB"/>
<path d="M150.265 31.6992L148.326 34.529C147.979 35.0811 147.633 35.6333 147.356 36.1164L146.524 37.3588V41.431H147.979V37.3588L151.928 31.7682H150.265V31.6992Z" fill="#A6B5CB"/>
<path d="M146.455 34.667L144.515 31.6992H142.714L146.247 36.8757L147.078 35.6333L146.455 34.667Z" fill="#A6B5CB"/>
<path d="M61.9382 49.3013V46.2644H62.9081V45.7812H60.4141V46.2644H61.384V49.3013H61.9382Z" fill="#A6B5CB"/>
<path d="M67.2017 45.7812H66.786L65.4697 49.3013H66.0239L66.3011 48.542H67.6173L67.8945 49.3013H68.4487L67.2017 45.7812ZM66.5089 48.059L66.9938 46.5405L67.4788 48.059H66.5089Z" fill="#A6B5CB"/>
<path d="M72.3975 46.5391C72.4668 46.4701 72.5361 46.4011 72.6053 46.3321C72.6746 46.2631 72.8132 46.263 72.9517 46.263C73.0903 46.263 73.2981 46.3321 73.3674 46.4011C73.506 46.4701 73.5752 46.6081 73.5752 46.7462H74.1295C74.0602 46.4701 73.9216 46.194 73.7138 45.987C73.506 45.7799 73.2288 45.7109 72.8824 45.7109C72.6053 45.7109 72.3975 45.7799 72.1897 45.9179C71.9818 46.056 71.8433 46.194 71.774 46.3321C71.7047 46.4011 71.7047 46.5391 71.6354 46.6772C71.6354 46.8152 71.5662 47.0913 71.5662 47.5054C71.5662 47.9195 71.5662 48.1956 71.6354 48.3336C71.6354 48.4027 71.6354 48.4717 71.7047 48.5407C71.7047 48.6097 71.774 48.6097 71.774 48.6787C71.8433 48.8168 71.9818 48.9548 72.1897 49.0929C72.3975 49.2309 72.6053 49.2999 72.8824 49.2999C73.2288 49.2999 73.5752 49.1619 73.7831 48.9548C73.9909 48.7478 74.1295 48.4027 74.1295 48.0576V47.3674H72.8824V47.8505H73.5752V48.0576C73.5752 48.2646 73.506 48.4717 73.3674 48.6097C73.2288 48.7478 73.0903 48.8168 72.8824 48.8168C72.7439 48.8168 72.6746 48.8168 72.5361 48.7478C72.4668 48.6788 72.3975 48.6097 72.3282 48.5407C72.2589 48.4717 72.1897 48.3337 72.1897 48.2646C72.1897 48.1266 72.1204 47.9195 72.1204 47.5744C72.1204 47.2293 72.1204 47.0223 72.1897 46.8842C72.2589 46.7462 72.3282 46.6081 72.3975 46.5391Z" fill="#A6B5CB"/>
<path d="M77.8018 45.7812V49.3013H80.0186V48.8181H78.2867V45.7812H77.8018Z" fill="#A6B5CB"/>
<path d="M84.1062 45.7812H83.552V49.3013H84.1062V45.7812Z" fill="#A6B5CB"/>
<path d="M88.3335 46.8166L89.9269 49.3013H90.4119V45.7812H89.9269V48.3351H89.8576L88.2643 45.7812H87.7793V49.3013H88.3335V46.8166Z" fill="#A6B5CB"/>
<path d="M96.4385 46.3335V45.7812H94.1523V49.3013H96.4385V48.8181H94.7066V47.7829H96.1614V47.2998H94.7066V46.3335H96.4385Z" fill="#A6B5CB"/>
<path d="M104.058 48.542C104.058 48.611 104.128 48.611 104.128 48.6801C104.197 48.8181 104.336 48.9562 104.543 49.0942C104.751 49.2322 104.959 49.3013 105.236 49.3013C105.583 49.3013 105.929 49.1632 106.137 48.9562C106.345 48.7491 106.483 48.4041 106.483 48.059V47.3688H105.236V47.8519H105.929V48.059C105.929 48.2661 105.86 48.473 105.721 48.6111C105.583 48.7491 105.444 48.8181 105.236 48.8181C105.098 48.8181 105.028 48.8181 104.89 48.7491C104.82 48.6801 104.751 48.611 104.682 48.542C104.613 48.473 104.543 48.3351 104.543 48.2661C104.543 48.128 104.474 47.921 104.474 47.5759C104.474 47.2307 104.474 47.0237 104.543 46.8856C104.543 46.7476 104.613 46.6786 104.682 46.6095C104.751 46.5405 104.82 46.4715 104.89 46.4025C104.959 46.3335 105.098 46.3335 105.236 46.3335C105.375 46.3335 105.583 46.4025 105.652 46.4715C105.79 46.5405 105.86 46.6786 105.86 46.8166H106.414C106.345 46.5405 106.206 46.2645 105.998 46.0574C105.79 45.8503 105.513 45.7812 105.167 45.7812C104.89 45.7812 104.682 45.8502 104.474 45.9883C104.266 46.1263 104.128 46.2645 104.058 46.4025C103.989 46.4715 103.989 46.6096 103.92 46.7476C103.92 46.8856 103.851 47.1617 103.851 47.5759C103.851 47.99 103.851 48.266 103.92 48.404C103.989 48.473 103.989 48.542 104.058 48.542Z" fill="#A6B5CB"/>
<path d="M110.016 48.5407C110.016 48.6097 110.086 48.6097 110.086 48.6787C110.155 48.8168 110.294 48.9548 110.501 49.0929C110.709 49.2309 110.917 49.2999 111.194 49.2999C111.471 49.2999 111.679 49.2309 111.887 49.0929C112.095 48.9548 112.233 48.8168 112.303 48.6787C112.372 48.6097 112.372 48.4717 112.441 48.3336C112.441 48.1956 112.441 47.9195 112.441 47.5054C112.441 47.0913 112.441 46.8152 112.441 46.6772C112.441 46.5391 112.372 46.4011 112.303 46.3321C112.233 46.194 112.095 46.056 111.887 45.9179C111.679 45.7799 111.471 45.7109 111.194 45.7109C110.917 45.7109 110.709 45.7799 110.501 45.9179C110.294 46.056 110.155 46.194 110.086 46.3321C110.016 46.4011 110.016 46.5391 109.947 46.6772C109.947 46.8152 109.878 47.0913 109.878 47.5054C109.878 47.9195 109.878 48.1956 109.947 48.3336C110.016 48.4717 110.016 48.5407 110.016 48.5407ZM110.501 46.8842C110.501 46.7462 110.571 46.6771 110.64 46.6081C110.709 46.5391 110.779 46.4701 110.848 46.4011C110.917 46.3321 111.056 46.3321 111.194 46.3321C111.333 46.3321 111.402 46.3321 111.541 46.4011C111.61 46.4701 111.679 46.5391 111.748 46.6081C111.818 46.6771 111.887 46.8152 111.887 46.8842C111.887 47.0223 111.956 47.2293 111.956 47.5744C111.956 47.9195 111.956 48.1266 111.887 48.2646C111.887 48.4027 111.818 48.4717 111.748 48.5407C111.679 48.6097 111.61 48.6788 111.541 48.7478C111.471 48.8168 111.333 48.8168 111.194 48.8168C111.056 48.8168 110.986 48.8168 110.848 48.7478C110.779 48.6788 110.709 48.6097 110.64 48.5407C110.571 48.4717 110.501 48.3337 110.501 48.2646C110.501 48.1266 110.432 47.9195 110.432 47.5744C110.501 47.2293 110.501 46.9532 110.501 46.8842Z" fill="#A6B5CB"/>
<path d="M118.329 46.3335V45.7812H116.112V49.3013H118.329V48.8181H116.597V47.7829H118.052V47.2998H116.597V46.3335H118.329Z" fill="#A6B5CB"/>
<path d="M122.9 48.8168C122.485 48.8168 122.207 48.6787 121.93 48.4717L121.584 48.8858C121.93 49.2309 122.415 49.3689 122.9 49.3689C123.732 49.3689 124.147 49.0238 124.147 48.3336C124.147 48.0576 124.078 47.8505 123.939 47.6434C123.801 47.4364 123.524 47.3674 123.177 47.2983C123.039 47.2983 122.9 47.2293 122.762 47.2293C122.554 47.2293 122.485 47.1603 122.415 47.0223C122.346 46.9533 122.277 46.8152 122.277 46.7462C122.277 46.6081 122.346 46.4701 122.485 46.3321C122.623 46.2631 122.762 46.194 122.9 46.194C123.247 46.194 123.524 46.263 123.801 46.4701L124.078 46.056C123.732 45.8489 123.385 45.7109 122.9 45.7109C122.554 45.7109 122.277 45.7799 122.069 45.987C121.861 46.194 121.792 46.4011 121.792 46.7462C121.792 47.0223 121.861 47.2293 122.069 47.3674C122.207 47.5744 122.485 47.6435 122.762 47.7125C122.9 47.7125 123.108 47.7815 123.247 47.7815C123.524 47.8505 123.732 47.9886 123.732 48.2646C123.524 48.6788 123.316 48.8168 122.9 48.8168Z" fill="#A6B5CB"/>
<path d="M134.263 49.3013V45.7812H133.778V47.2998H132.323V45.7812H131.838V49.3013H132.323V47.7829H133.778V49.3013H134.263Z" fill="#A6B5CB"/>
<path d="M140.292 46.3335V45.7812H138.006V49.3013H140.292V48.8181H138.56V47.7829H140.015V47.2998H138.56V46.3335H140.292Z" fill="#A6B5CB"/>
<path d="M146.178 46.8159C146.178 46.4708 146.039 46.2637 145.831 46.0567C145.623 45.9186 145.416 45.8496 145.138 45.8496H143.753V49.3696H144.307V47.8512H145L145.762 49.3696H146.386L145.554 47.7822C145.97 47.5751 146.178 47.299 146.178 46.8159ZM145.554 47.161C145.485 47.299 145.277 47.2991 145.069 47.3681H144.238V46.3328H145.069C145.208 46.3328 145.346 46.4018 145.485 46.4708C145.623 46.5398 145.693 46.6779 145.693 46.8849C145.693 46.9539 145.623 47.092 145.554 47.161Z" fill="#A6B5CB"/>
<path d="M152 46.3335V45.7812H149.783V49.3013H152V48.8181H150.268V47.7829H151.792V47.2998H150.268V46.3335H152Z" fill="#A6B5CB"/>
</svg>
