<svg width="160" height="80" viewBox="0 0 160 80" fill="none" xmlns="http://www.w3.org/2000/svg">
<g clip-path="url(#clip0_844_2009)">
<mask id="mask0_844_2009" style="mask-type:luminance" maskUnits="userSpaceOnUse" x="42" y="7" width="76" height="66">
<path d="M118 7H42V73H118V7Z" fill="white"/>
</mask>
<g mask="url(#mask0_844_2009)">
<path opacity="0.84" fill-rule="evenodd" clip-rule="evenodd" d="M79.9952 54.375C88.4901 54.375 95.379 54.6186 95.379 54.9208C95.379 55.2229 88.4901 55.4665 79.9952 55.4665C71.5002 55.4665 64.6113 55.2229 64.6113 54.9208C64.6113 54.6186 71.5002 54.375 79.9952 54.375Z" fill="#A6B5CB"/>
<path d="M111.131 66.4407V60.3592H114.826V61.6944H112.737V62.747H114.71V64.0529H112.737V65.0763H114.826V66.4407H111.131ZM110.24 66.4407H108.702L108.344 63.8093C108.325 63.6241 108.296 63.4194 108.276 63.1855C108.257 62.9614 108.238 62.708 108.218 62.4448C108.18 62.6982 108.102 63.0199 107.996 63.4097C107.976 63.4877 107.957 63.5461 107.938 63.5851L107.115 66.431H106.022L105.2 63.5851C105.19 63.5461 105.17 63.4877 105.151 63.4097C105.035 63.0296 104.958 62.708 104.929 62.4546C104.909 62.6885 104.89 62.9126 104.871 63.1368C104.851 63.361 104.822 63.5851 104.793 63.8093L104.435 66.4407H102.906L103.835 60.3592H105.47L106.38 63.4974C106.39 63.5169 106.399 63.5559 106.409 63.6046C106.496 63.8872 106.544 64.1212 106.573 64.3258C106.583 64.2186 106.602 64.1017 106.631 63.9652C106.66 63.8385 106.699 63.6728 106.757 63.4877L107.676 60.3592H109.312L110.24 66.4407ZM96.5111 66.4407L98.5913 60.3592H100.652L102.742 66.4407H101.107L100.797 65.3492H98.4559L98.1463 66.4407H96.5111ZM98.8139 64.1699H100.449L99.8298 62.1622C99.8104 62.1037 99.7814 62.0063 99.7524 61.8698C99.7233 61.7334 99.675 61.5579 99.6266 61.3435C99.5879 61.4897 99.5589 61.6359 99.5202 61.7724C99.4911 61.9088 99.4524 62.0355 99.4137 62.1622L98.8139 64.1699ZM90.019 66.4407V60.3592H91.6057L93.8891 63.4877C93.9375 63.5559 94.0052 63.6826 94.102 63.8678C94.1987 64.0627 94.3148 64.2868 94.4309 64.5597C94.4019 64.3063 94.3729 64.0822 94.3632 63.8872C94.3438 63.6923 94.3438 63.5169 94.3438 63.361V60.3592H95.9209V66.4407H94.3438L92.0605 63.3025C92.0121 63.2343 91.9444 63.1076 91.8379 62.9224C91.7412 62.7275 91.6251 62.5033 91.509 62.2402C91.538 62.4936 91.567 62.7177 91.5767 62.9224C91.596 63.1173 91.596 63.2927 91.596 63.4487V66.4504H90.019V66.4407ZM82.7431 64.4818C82.985 64.7644 83.2268 64.9691 83.4687 65.1055C83.7106 65.2419 83.9428 65.3102 84.175 65.3102C84.3976 65.3102 84.5717 65.2517 84.7169 65.1347C84.862 65.0178 84.9297 64.8619 84.9297 64.6864C84.9297 64.4818 84.8717 64.3258 84.7459 64.2186C84.6201 64.1114 84.3492 63.9945 83.9138 63.8775C83.3236 63.7216 82.9076 63.5072 82.656 63.2538C82.4141 63.0004 82.2883 62.6398 82.2883 62.1914C82.2883 61.6067 82.4818 61.1389 82.8689 60.7685C83.2559 60.3982 83.759 60.2227 84.3685 60.2227C84.6975 60.2227 85.0168 60.2715 85.3167 60.3592C85.6167 60.4469 85.8973 60.5834 86.1682 60.7685L85.6554 61.9575C85.4715 61.8016 85.278 61.6749 85.0748 61.5969C84.8813 61.519 84.6878 61.4702 84.4943 61.4702C84.2911 61.4702 84.1363 61.519 84.0106 61.6164C83.8848 61.7139 83.8267 61.8308 83.8267 61.9868C83.8267 62.1427 83.8848 62.2597 83.9912 62.3571C84.0976 62.4448 84.3105 62.5326 84.6201 62.6203L84.6975 62.6398C85.3651 62.8249 85.8102 63.0199 86.023 63.244C86.1682 63.3902 86.2746 63.5754 86.352 63.78C86.4294 63.9847 86.4584 64.2186 86.4584 64.472C86.4584 65.1152 86.2456 65.6318 85.8295 66.0314C85.4135 66.4212 84.8523 66.6161 84.146 66.6161C83.73 66.6161 83.343 66.5479 82.9946 66.4017C82.6463 66.2555 82.3174 66.0314 81.9981 65.7195L82.7431 64.4818ZM77.8377 64.4818C78.0796 64.7644 78.3214 64.9691 78.5633 65.1055C78.8052 65.2419 79.0374 65.3102 79.2696 65.3102C79.4922 65.3102 79.6663 65.2517 79.8114 65.1347C79.9566 65.0178 80.0243 64.8619 80.0243 64.6864C80.0243 64.4818 79.9663 64.3258 79.8405 64.2186C79.7147 64.1114 79.4438 63.9945 79.0084 63.8775C78.4182 63.7216 78.0022 63.5072 77.7506 63.2538C77.5087 63.0004 77.3829 62.6398 77.3829 62.1914C77.3829 61.6067 77.5764 61.1389 77.9635 60.7685C78.3505 60.3982 78.8536 60.2227 79.4631 60.2227C79.7921 60.2227 80.1114 60.2715 80.4113 60.3592C80.7113 60.4469 80.9918 60.5834 81.2627 60.7685L80.75 61.9575C80.5661 61.8016 80.3726 61.6749 80.1694 61.5969C79.9759 61.519 79.7824 61.4702 79.5889 61.4702C79.3857 61.4702 79.2309 61.519 79.1051 61.6164C78.9794 61.7139 78.9213 61.8308 78.9213 61.9868C78.9213 62.1427 78.9794 62.2597 79.0858 62.3571C79.1922 62.4448 79.4051 62.5326 79.7147 62.6203L79.7921 62.6398C80.4597 62.8249 80.9048 63.0199 81.1176 63.244C81.2627 63.3902 81.3692 63.5754 81.4466 63.78C81.524 63.9847 81.553 64.2186 81.553 64.472C81.553 65.1152 81.3402 65.6318 80.9241 66.0314C80.5081 66.4212 79.9469 66.6161 79.2406 66.6161C78.8149 66.6161 78.4375 66.5479 78.0892 66.4017C77.7409 66.2555 77.412 66.0314 77.0927 65.7195L77.8377 64.4818ZM72.7775 66.4407V60.3592H76.4734V61.6944H74.3836V62.747H76.3573V64.0529H74.3836V65.0763H76.4734V66.4407H72.7775ZM65.579 66.4407V60.3592H67.1657L69.4491 63.4877C69.4975 63.5559 69.5652 63.6826 69.662 63.8678C69.7587 64.0627 69.8748 64.2868 69.9909 64.5597C69.9619 64.3063 69.9329 64.0822 69.9232 63.8872C69.9039 63.6923 69.9039 63.5169 69.9039 63.361V60.3592H71.481V66.4407H69.9039L67.6205 63.3025C67.5721 63.2343 67.5044 63.1076 67.398 62.9224C67.3012 62.7275 67.1851 62.5033 67.069 62.2402C67.098 62.4936 67.127 62.7177 67.1367 62.9224C67.1561 63.1173 67.1561 63.2927 67.1561 63.4487V66.4504H65.579V66.4407ZM62.5893 66.4407V60.3592H64.2535V66.4407H62.5893ZM57.9161 64.4818C58.158 64.7644 58.3999 64.9691 58.6417 65.1055C58.8836 65.2419 59.1158 65.3102 59.348 65.3102C59.5706 65.3102 59.7447 65.2517 59.8899 65.1347C60.035 65.0178 60.1027 64.8619 60.1027 64.6864C60.1027 64.4818 60.0447 64.3258 59.9189 64.2186C59.7931 64.1114 59.5222 63.9945 59.0868 63.8775C58.4966 63.7216 58.0806 63.5072 57.829 63.2538C57.5871 63.0004 57.4613 62.6398 57.4613 62.1914C57.4613 61.6067 57.6549 61.1389 58.0419 60.7685C58.4289 60.3982 58.932 60.2227 59.5416 60.2227C59.8705 60.2227 60.1898 60.2715 60.4897 60.3592C60.7897 60.4469 61.0703 60.5834 61.3412 60.7685L60.8284 61.9575C60.6445 61.8016 60.451 61.6749 60.2479 61.5969C60.0543 61.519 59.8608 61.4702 59.6673 61.4702C59.4642 61.4702 59.3093 61.519 59.1836 61.6164C59.0578 61.7139 58.9997 61.8308 58.9997 61.9868C58.9997 62.1427 59.0578 62.2597 59.1642 62.3571C59.2706 62.4448 59.4835 62.5326 59.7931 62.6203L59.8705 62.6398C60.5381 62.8249 60.9832 63.0199 61.196 63.244C61.3412 63.3902 61.4476 63.5754 61.525 63.78C61.6024 63.9847 61.6314 64.2186 61.6314 64.472C61.6314 65.1152 61.4186 65.6318 61.0025 66.0314C60.5768 66.4212 60.0253 66.6161 59.319 66.6161C58.8933 66.6161 58.516 66.5479 58.1677 66.4017C57.8193 66.2555 57.4904 66.0314 57.1711 65.7195L57.9161 64.4818ZM51.0176 60.3592H52.6624V63.3122C52.6624 63.7508 52.672 64.0627 52.6914 64.2479C52.7107 64.433 52.7494 64.5987 52.8075 64.7254C52.8655 64.8813 52.9817 64.9983 53.1365 65.086C53.2913 65.164 53.4848 65.2127 53.7073 65.2127C53.9298 65.2127 54.1233 65.1737 54.2782 65.086C54.433 65.008 54.5394 64.8813 54.6071 64.7254C54.6652 64.5987 54.6942 64.4428 54.7232 64.2479C54.7426 64.0529 54.7522 63.7411 54.7522 63.3122V62.8932V60.3494H56.3874V63.5656C56.3874 64.2284 56.3487 64.7254 56.2713 65.0373C56.1939 65.3589 56.0584 65.622 55.8649 65.8462C55.6617 66.0898 55.3715 66.275 55.0135 66.4017C54.6555 66.5284 54.2201 66.5869 53.6976 66.5869C53.1848 66.5869 52.7398 66.5284 52.3818 66.4017C52.0238 66.275 51.7432 66.0898 51.5303 65.8462C51.3465 65.622 51.2111 65.3491 51.124 65.0373C51.0466 64.7157 50.9982 64.2284 50.9982 63.5656V62.9419V60.3592H51.0176ZM46.8571 65.203H47.4377C47.8247 65.203 48.1053 65.1542 48.2698 65.0568C48.4342 64.9593 48.5116 64.7936 48.5116 64.5695C48.5116 64.3161 48.4342 64.1406 48.2891 64.0334C48.144 63.936 47.8634 63.8775 47.4667 63.8775H46.8668V65.203H46.8571ZM45.3284 66.4407V60.3592H46.9829C47.6602 60.3592 48.144 60.3787 48.4149 60.4274C48.6858 60.4761 48.918 60.5444 49.1115 60.6516C49.334 60.7783 49.4985 60.9439 49.6243 61.1486C49.7404 61.363 49.7985 61.5969 49.7985 61.8698C49.7985 62.2207 49.7114 62.4936 49.5372 62.6982C49.3631 62.9029 49.0825 63.0588 48.7051 63.166C49.1309 63.1953 49.4695 63.3512 49.7114 63.6241C49.9533 63.897 50.079 64.2576 50.079 64.7059C50.079 65.0275 50.0113 65.3102 49.8759 65.5636C49.7404 65.8072 49.5469 66.0021 49.2953 66.1386C49.0922 66.2458 48.8309 66.3335 48.531 66.3725C48.231 66.4212 47.7376 66.4407 47.0507 66.4407H45.3284ZM46.8571 62.7957H47.1861C47.5925 62.7957 47.8731 62.747 48.0279 62.6592C48.1827 62.5715 48.2504 62.4156 48.2504 62.1914C48.2504 61.9575 48.1827 61.8016 48.0375 61.7041C47.8924 61.6164 47.6215 61.5677 47.2151 61.5677H46.8571V62.7957Z" fill="#A6B5CB"/>
<path d="M96.7625 72.9213V68.8572H99.22V69.3445H97.3236V70.553H99.0072V71.0306H97.3236V72.434H99.3651V72.9213H96.7625ZM94.2178 69.3153C93.976 69.3153 93.7921 69.325 93.6664 69.3348V70.8649H94.0727C94.2662 70.8649 94.4404 70.8552 94.5952 70.8357C94.75 70.8162 94.8855 70.7772 94.9919 70.7285C95.0983 70.67 95.1854 70.592 95.2434 70.4946C95.3015 70.3971 95.3305 70.2607 95.3305 70.095C95.3305 69.939 95.3015 69.8123 95.2434 69.7149C95.1854 69.6174 95.108 69.5297 95.0112 69.4712C94.9145 69.4128 94.7984 69.3738 94.6629 69.3445C94.5081 69.325 94.3727 69.3153 94.2178 69.3153ZM95.0693 71.2158C95.1273 71.2937 95.2144 71.4009 95.3015 71.5276C95.3982 71.6543 95.495 71.7908 95.5918 71.9467C95.6885 72.1027 95.7949 72.2586 95.8917 72.434C95.9884 72.5997 96.0755 72.7654 96.1432 72.9213H95.524C95.4466 72.7751 95.3595 72.6192 95.2725 72.473C95.1854 72.3171 95.0886 72.1709 94.9919 72.0344C94.8951 71.898 94.808 71.7615 94.7113 71.6446C94.6242 71.5276 94.5371 71.4204 94.4597 71.3327C94.4114 71.3327 94.3533 71.3425 94.3049 71.3425C94.2565 71.3425 94.1985 71.3425 94.1404 71.3425H93.6664V72.9311H93.1052V68.9255C93.26 68.8865 93.4438 68.8572 93.6373 68.8475C93.8308 68.8377 94.0147 68.828 94.1791 68.828C94.75 68.828 95.1757 68.9352 95.4756 69.1496C95.7756 69.364 95.9207 69.6856 95.9207 70.1145C95.9207 70.3874 95.853 70.6115 95.7079 70.8064C95.553 70.9819 95.3499 71.1281 95.0693 71.2158ZM89.7769 72.9213V68.8572H92.2344V69.3445H90.338V70.553H92.0215V71.0306H90.338V72.434H92.3795V72.9213H89.7769ZM88.2094 68.8572H88.7706V72.9213H88.2094V71.0501H86.2357V72.9213H85.6745V68.8572H86.2357V70.553H88.2094V68.8572ZM81.011 72.9213V68.8572H83.4685V69.3445H81.5721V70.553H83.2557V71.0306H81.5721V72.434H83.6136V72.9213H81.011ZM79.5306 72.9213C79.4436 72.7751 79.3468 72.6192 79.2404 72.434C79.134 72.2586 79.0082 72.0637 78.8824 71.8785C78.7566 71.6836 78.6212 71.4887 78.4857 71.2937C78.3502 71.0988 78.2148 70.9039 78.0793 70.7187C77.9439 70.5335 77.8084 70.3581 77.6826 70.1924C77.5569 70.0268 77.4408 69.8806 77.3247 69.7539V72.9213H76.7732V68.8572H77.2182C77.4021 69.0522 77.5956 69.2763 77.7988 69.5395C78.0019 69.8026 78.2148 70.0657 78.418 70.3386C78.6212 70.6115 78.8147 70.8844 78.9985 71.1475C79.1823 71.4107 79.3275 71.6543 79.4532 71.859V68.8475H80.0047V72.9116H79.5306V72.9213ZM75.2058 68.8572H75.7669V72.9213H75.2058V68.8572ZM74.6156 72.4243V72.9213H72.187V68.8572H72.7482V72.4243H74.6156ZM70.7357 70.9234H71.2969V72.8239C71.2485 72.8434 71.1808 72.8531 71.0937 72.8726C71.0066 72.8921 70.9099 72.9116 70.7938 72.9311C70.6777 72.9506 70.5519 72.9701 70.4164 72.9798C70.281 72.9895 70.1455 72.9993 70.0004 72.9993C69.7198 72.9993 69.4586 72.9506 69.2264 72.8628C68.9942 72.7654 68.791 72.6289 68.6265 72.4535C68.462 72.2781 68.3266 72.0539 68.2395 71.7908C68.1524 71.5276 68.104 71.2255 68.104 70.8844C68.104 70.5433 68.1524 70.2412 68.2588 69.978C68.3653 69.7149 68.5007 69.4907 68.6749 69.3153C68.849 69.1399 69.0522 69.0034 69.2844 68.906C69.5166 68.8085 69.7682 68.7695 70.0391 68.7695C70.2229 68.7695 70.3874 68.7793 70.5229 68.8085C70.668 68.828 70.7841 68.8572 70.8905 68.8865C70.9873 68.9157 71.0744 68.9449 71.1421 68.9839C71.2098 69.0132 71.2485 69.0424 71.2776 69.0522L71.0937 69.5297C70.9776 69.4517 70.8325 69.3933 70.6487 69.3445C70.4648 69.2958 70.2713 69.2666 70.0778 69.2666C69.8746 69.2666 69.6811 69.3056 69.5166 69.3738C69.3522 69.4517 69.207 69.5589 69.0812 69.6954C68.9651 69.8318 68.8684 70.0073 68.8007 70.2119C68.7329 70.4166 68.7039 70.6408 68.7039 70.8844C68.7039 71.1281 68.7329 71.3522 68.791 71.5471C68.849 71.7421 68.9361 71.9175 69.0425 72.0637C69.1587 72.2099 69.2941 72.3171 69.4683 72.395C69.6327 72.473 69.8359 72.512 70.0681 72.512C70.2326 72.512 70.3681 72.5022 70.4842 72.4828C70.6003 72.4633 70.6777 72.4438 70.7357 72.434V70.9234ZM66.585 71.4107C66.4592 71.0696 66.3334 70.7382 66.2173 70.4263C66.0916 70.1047 65.9658 69.8026 65.84 69.5102C65.7045 69.8026 65.5788 70.1047 65.453 70.4263C65.3272 70.748 65.2111 71.0696 65.0853 71.4107H66.585ZM67.1075 72.9213C67.0397 72.7459 66.9817 72.5705 66.9236 72.4048C66.8656 72.2391 66.8075 72.0637 66.7398 71.8882H64.9112L64.5435 72.9213H63.963C64.1178 72.4925 64.2629 72.0929 64.3984 71.7323C64.5338 71.3717 64.6693 71.0208 64.7951 70.6895C64.9208 70.3581 65.0563 70.0462 65.1821 69.7441C65.3079 69.442 65.4433 69.1496 65.5788 68.8572H66.1012C66.2367 69.1496 66.3721 69.442 66.5076 69.7441C66.6334 70.0462 66.7688 70.3581 66.8946 70.6895C67.0204 71.0208 67.1559 71.362 67.2913 71.7323C67.4268 72.0929 67.5719 72.4925 67.7267 72.9213H67.1075ZM63.8178 68.8572V69.3543H62.5504V72.9213H61.9892V69.3543H60.7217V68.8572H63.8178Z" fill="#A6B5CB"/>
<path fill-rule="evenodd" clip-rule="evenodd" d="M67.3301 49.5314H72.816L89.7092 32.5149H92.6602L96.8884 28.2656H79.9952L84.2233 32.5149L67.3301 49.5314Z" fill="#A6B5CB"/>
<path fill-rule="evenodd" clip-rule="evenodd" d="M92.6601 32.5149V35.4972L78.7373 49.5314H84.2232L92.6601 41.0232L96.8882 45.2724V28.2656L92.6601 32.5149Z" fill="#A6B5CB"/>
<path fill-rule="evenodd" clip-rule="evenodd" d="M96.8884 32.5154V38.0413L110.821 24.0071H113.772L118 19.7578H101.107L105.325 24.0071L96.8884 32.5154Z" fill="#A6B5CB"/>
<path fill-rule="evenodd" clip-rule="evenodd" d="M113.772 24.0071V26.9894L91.6733 49.5319H97.1593L113.772 32.5154L118 36.7744V19.7578L113.772 24.0071Z" fill="#A6B5CB"/>
<path fill-rule="evenodd" clip-rule="evenodd" d="M92.6602 28.2658H87.1743L101.107 14.2315V11.2493L105.325 7V24.0068L101.107 19.7575L92.6602 28.2658Z" fill="#A6B5CB"/>
<path fill-rule="evenodd" clip-rule="evenodd" d="M101.107 11.2493H98.1462L84.2234 25.2835V19.7575L92.6603 11.2493L88.4419 7H105.325L101.107 11.2493Z" fill="#A6B5CB"/>
<path fill-rule="evenodd" clip-rule="evenodd" d="M59.222 49.5311H53.7361L79.9951 22.7393V19.7571L84.2232 15.5078V32.5146L79.9951 28.2653L59.222 49.5311Z" fill="#A6B5CB"/>
<path fill-rule="evenodd" clip-rule="evenodd" d="M79.9952 19.7571H77.0442L47.4859 49.5311H42L71.5582 19.7571L67.3301 15.5078H84.2233L79.9952 19.7571Z" fill="#A6B5CB"/>
</g>
</g>
<defs>
<clipPath id="clip0_844_2009">
<rect width="160" height="80" fill="white"/>
</clipPath>
</defs>
</svg>
