<svg width="160" height="80" viewBox="0 0 160 80" fill="none" xmlns="http://www.w3.org/2000/svg">
<mask id="mask0_844_1839" style="mask-type:luminance" maskUnits="userSpaceOnUse" x="9" y="19" width="143" height="42">
<path d="M151.68 19H9V60.8449H151.68V19Z" fill="white"/>
</mask>
<g mask="url(#mask0_844_1839)">
<mask id="mask1_844_1839" style="mask-type:luminance" maskUnits="userSpaceOnUse" x="-16" y="-56" width="194" height="193">
<path d="M177.063 -55.9746H-15.0625V136.151H177.063V-55.9746Z" fill="white"/>
</mask>
<g mask="url(#mask1_844_1839)">
<path d="M24.4882 41.5117H8.99902V57.0008H24.4882V41.5117Z" fill="#A6B5CB"/>
<path d="M16.6457 35.9989C20.7287 35.9989 24.0387 32.689 24.0387 28.6059C24.0387 24.5229 20.7287 21.2129 16.6457 21.2129C12.5626 21.2129 9.25269 24.5229 9.25269 28.6059C9.25269 32.689 12.5626 35.9989 16.6457 35.9989Z" fill="#A6B5CB"/>
<path d="M36.6193 21.1816H31.1553V57.3088H36.6193V21.1816Z" fill="#E3E3E3"/>
<path d="M24.4882 41.5117L8.99902 57.0008H24.4882V41.5117Z" fill="#E3E3E3"/>
<path d="M47.2675 38.9285H44.9447V27.0148C44.9447 25.2997 45.4942 23.9011 46.5932 22.8188C47.7088 21.7365 49.0825 21.1953 50.7143 21.1953C52.5126 21.1953 53.8613 21.6532 54.7604 22.569C55.6762 23.4681 56.1341 24.5754 56.1341 25.8908C56.1341 27.5726 55.3515 28.7798 53.7864 29.5124V29.6123C55.9343 30.2284 57.0083 31.7187 57.0083 34.0831C57.0083 37.3133 55.1018 38.9285 51.2887 38.9285H48.1667V36.7306H51.2638C52.4127 36.7306 53.2535 36.4974 53.7864 36.0312C54.3192 35.565 54.5856 34.8157 54.5856 33.7834C54.5856 32.8842 54.2942 32.1932 53.7114 31.7103C53.1453 31.2274 52.371 30.986 51.3886 30.986H48.916V28.913H50.5145C51.4136 28.913 52.1796 28.6715 52.8123 28.1887C53.4617 27.6891 53.7864 27.0231 53.7864 26.1906C53.7864 25.3913 53.5366 24.7253 53.0371 24.1925C52.5542 23.6596 51.7633 23.3932 50.6643 23.3932C49.6653 23.3932 48.8494 23.7096 48.2166 24.3423C47.5839 24.9584 47.2675 25.8659 47.2675 27.0647V38.9285ZM66.2938 31.8852V34.133C65.6611 33.6502 64.8868 33.4087 63.971 33.4087C63.1884 33.4087 62.5807 33.5669 62.1478 33.8833C61.7148 34.183 61.4984 34.6159 61.4984 35.182C61.4984 36.281 62.3143 36.8305 63.9461 36.8305H67.2429V32.06C67.2429 30.0452 66.2605 29.0379 64.2957 29.0379H60.2995V26.9399H64.4206C66.0357 26.9399 67.2762 27.3395 68.1421 28.1387C69.0079 28.938 69.4408 30.0869 69.4408 31.5854V38.9285H63.8711C62.4558 38.9285 61.3319 38.6121 60.4993 37.9794C59.6668 37.3466 59.2505 36.4225 59.2505 35.207C59.2505 33.9915 59.6918 33.0674 60.5743 32.4346C61.4567 31.8019 62.564 31.4855 63.8961 31.4855C64.6454 31.4855 65.4446 31.6187 66.2938 31.8852ZM82.127 38.9285H77.8061C75.9579 38.9285 74.6342 38.6537 73.8349 38.1043C73.1189 37.6214 72.661 37.0469 72.4612 36.3809C72.2781 35.6982 72.1865 34.8074 72.1865 33.7084V26.9399H74.3844V33.6835C74.3844 33.9832 74.3927 34.2413 74.4094 34.4577C74.426 34.6575 74.4843 34.9239 74.5842 35.257C74.6841 35.5733 74.8256 35.8397 75.0088 36.0562C75.192 36.256 75.4584 36.4392 75.808 36.6057C76.1577 36.7555 76.5823 36.8305 77.0818 36.8305H79.9291V26.9399H82.127V38.9285ZM87.4579 21.4451V26.9399H89.5809C91.4292 26.9399 92.7529 27.2146 93.5521 27.7641C94.2681 28.2469 94.7177 28.8297 94.9009 29.5124C95.1007 30.1784 95.2006 31.0609 95.2006 32.1599V38.9285H93.0027V32.1849C93.0027 31.8852 92.9943 31.6354 92.9777 31.4356C92.961 31.2191 92.9028 30.9527 92.8028 30.6363C92.7029 30.3033 92.5614 30.0369 92.3783 29.8371C92.1951 29.6206 91.9287 29.4375 91.579 29.2876C91.2293 29.1211 90.8047 29.0379 90.3052 29.0379H87.4579V38.9285H85.26V21.4451H87.4579ZM99.5609 28.5134C100.726 27.2978 102.183 26.6901 103.932 26.6901C104.781 26.6901 105.572 26.8566 106.304 27.1896C107.054 27.506 107.703 27.9472 108.253 28.5134C108.819 29.0795 109.26 29.7455 109.576 30.5115C109.893 31.2608 110.051 32.0683 110.051 32.9342C110.051 33.8 109.893 34.6159 109.576 35.3818C109.277 36.1311 108.852 36.7888 108.303 37.355C107.753 37.9211 107.104 38.3707 106.354 38.7037C105.605 39.0201 104.798 39.1782 103.932 39.1782C103.049 39.1782 102.233 39.0201 101.484 38.7037C100.751 38.3707 100.11 37.9211 99.5609 37.355C99.0114 36.7888 98.5785 36.1311 98.2621 35.3818C97.9624 34.6159 97.8125 33.8 97.8125 32.9342C97.8125 31.1692 98.3953 29.6956 99.5609 28.5134ZM103.932 28.7881C102.766 28.7881 101.825 29.1711 101.109 29.937C100.41 30.7029 100.06 31.702 100.06 32.9342C100.06 34.1663 100.41 35.1654 101.109 35.9313C101.825 36.6973 102.766 37.0802 103.932 37.0802C105.114 37.0802 106.055 36.6973 106.754 35.9313C107.453 35.1487 107.803 34.1497 107.803 32.9342C107.803 31.7187 107.453 30.7279 106.754 29.962C106.055 29.1794 105.114 28.7881 103.932 28.7881ZM122.616 38.9285H118.295C116.447 38.9285 115.123 38.6537 114.324 38.1043C113.608 37.6214 113.15 37.0469 112.95 36.3809C112.767 35.6982 112.675 34.8074 112.675 33.7084V26.9399H114.873V33.6835C114.873 33.9832 114.882 34.2413 114.898 34.4577C114.915 34.6575 114.973 34.9239 115.073 35.257C115.173 35.5733 115.315 35.8397 115.498 36.0562C115.681 36.256 115.947 36.4392 116.297 36.6057C116.647 36.7555 117.071 36.8305 117.571 36.8305H120.418V26.9399H122.616V38.9285ZM134.066 26.9399V29.0379H129.645C129.162 29.0379 128.746 29.1294 128.396 29.3126C128.047 29.4958 127.872 29.7538 127.872 30.0869C127.872 30.2867 127.914 30.4698 127.997 30.6363C128.08 30.7862 128.172 30.9111 128.272 31.011C128.388 31.1109 128.555 31.2191 128.771 31.3357C129.004 31.4356 129.179 31.5105 129.296 31.5605C129.429 31.5938 129.962 31.7603 130.894 32.06C131.826 32.3597 132.518 32.6095 132.967 32.8093C133.417 33.0091 133.758 33.2838 133.991 33.6335C134.241 33.9665 134.399 34.2995 134.466 34.6326C134.532 34.9489 134.566 35.2653 134.566 35.5817C134.566 37.8129 133.034 38.9285 129.97 38.9285H125.649V36.8305H129.97C131.535 36.8305 132.318 36.4142 132.318 35.5817C132.318 35.182 132.085 34.849 131.618 34.5826C131.169 34.3162 130.611 34.0914 129.945 33.9082C129.296 33.7251 128.638 33.5169 127.972 33.2838C127.322 33.0341 126.765 32.6428 126.298 32.1099C125.849 31.5605 125.624 30.8861 125.624 30.0869C125.624 29.0712 126.015 28.2969 126.798 27.7641C127.581 27.2146 128.53 26.9399 129.645 26.9399H134.066ZM142.936 26.6901C145.766 26.8066 147.182 27.9805 147.182 30.2117C147.182 32.9924 145.358 34.3828 141.712 34.3828H140.688V32.4596H141.887C143.002 32.4596 143.777 32.2931 144.21 31.9601C144.642 31.6104 144.859 31.036 144.859 30.2367C144.859 29.7205 144.667 29.3376 144.284 29.0878C143.902 28.8214 143.41 28.6882 142.811 28.6882C141.629 28.6882 140.696 29.1045 140.014 29.937C139.347 30.7696 139.014 31.7686 139.014 32.9342C139.014 34.1663 139.372 35.1654 140.088 35.9313C140.821 36.6973 141.77 37.0802 142.936 37.0802C143.985 37.0802 144.842 36.8221 145.508 36.306L147.007 37.7796C145.858 38.712 144.501 39.1782 142.936 39.1782C141.038 39.1782 139.522 38.6204 138.39 37.5048C137.258 36.3892 136.692 34.9489 136.692 33.1839C136.692 31.2191 137.249 29.629 138.365 28.4135C139.481 27.1979 141.004 26.6235 142.936 26.6901Z" fill="#A6B5CB"/>
<path d="M58.5069 55.5947C58.3414 55.5947 58.2051 55.5412 58.0981 55.4341C57.991 55.327 57.9374 55.1907 57.9374 55.0252V44.7604C57.9374 44.5949 57.991 44.4586 58.0981 44.3515C58.2051 44.2444 58.3414 44.1909 58.5069 44.1909H61.2374C61.948 44.1909 62.5807 44.3418 63.1356 44.6435C63.6905 44.9356 64.1236 45.3493 64.4351 45.8847C64.7564 46.4103 64.917 47.0187 64.917 47.7099C64.917 48.3718 64.7564 48.9607 64.4351 49.4767C64.1236 49.9926 63.6905 50.3965 63.1356 50.6886C62.5807 50.9806 61.948 51.1266 61.2374 51.1266H59.0764V55.0252C59.0764 55.1907 59.0228 55.327 58.9158 55.4341C58.8087 55.5412 58.6724 55.5947 58.5069 55.5947ZM64.6103 55.5947C64.4838 55.5947 64.3816 55.5704 64.3037 55.5217C64.2356 55.473 64.1723 55.4 64.1139 55.3027L61.3104 50.8346L62.4493 50.5426L65.063 54.7186C65.209 54.9522 65.2333 55.1566 65.136 55.3319C65.0484 55.5071 64.8732 55.5947 64.6103 55.5947ZM59.0764 50.0315H61.2374C61.7338 50.0315 62.1719 49.9342 62.5515 49.7395C62.9409 49.5351 63.2475 49.2576 63.4714 48.9072C63.6953 48.5568 63.8073 48.1576 63.8073 47.7099C63.8073 47.2329 63.6953 46.8143 63.4714 46.4541C63.2475 46.0842 62.9409 45.7971 62.5515 45.5926C62.1719 45.3882 61.7338 45.286 61.2374 45.286H59.0764V50.0315ZM67.533 55.5947C67.3676 55.5947 67.2313 55.5412 67.1242 55.4341C67.0171 55.327 66.9636 55.1907 66.9636 55.0252V44.7604C66.9636 44.5949 67.0171 44.4586 67.1242 44.3515C67.2313 44.2444 67.3676 44.1909 67.533 44.1909H74.3812C74.5369 44.1909 74.6683 44.2444 74.7754 44.3515C74.8922 44.4489 74.9506 44.5803 74.9506 44.7458C74.9506 44.8918 74.8922 45.0183 74.7754 45.1254C74.6683 45.2325 74.5369 45.286 74.3812 45.286H68.1025V49.316H72.6728C72.8383 49.316 72.9746 49.3696 73.0816 49.4767C73.1887 49.5837 73.2422 49.7151 73.2422 49.8709C73.2422 50.0266 73.1887 50.1581 73.0816 50.2651C72.9746 50.3722 72.8383 50.4258 72.6728 50.4258H68.1025V54.4996H74.3812C74.5369 54.4996 74.6683 54.5531 74.7754 54.6602C74.8922 54.7673 74.9506 54.8938 74.9506 55.0398C74.9506 55.2053 74.8922 55.3416 74.7754 55.4487C74.6683 55.546 74.5369 55.5947 74.3812 55.5947H67.533ZM76.4456 55.5947C76.2217 55.5947 76.0611 55.5022 75.9637 55.3173C75.8664 55.1323 75.8566 54.9522 75.9345 54.777L80.2274 44.5851C80.3344 44.3223 80.5194 44.1909 80.7822 44.1909C81.0353 44.1909 81.2154 44.3223 81.3225 44.5851L85.6299 54.7916C85.7175 54.9766 85.7029 55.1566 85.5861 55.3319C85.4791 55.5071 85.3233 55.5947 85.1189 55.5947C85.0021 55.5947 84.895 55.5655 84.7976 55.5071C84.71 55.4487 84.637 55.3611 84.5786 55.2443L80.5632 45.505H81.0158L76.9712 55.2443C76.9226 55.3611 76.8495 55.4487 76.7522 55.5071C76.6646 55.5655 76.5624 55.5947 76.4456 55.5947ZM77.4093 52.8788L77.8473 51.9005H83.7755L84.2136 52.8788H77.4093ZM87.9096 55.5947C87.7538 55.5947 87.6176 55.5412 87.5008 55.4341C87.3937 55.327 87.3401 55.1907 87.3401 55.0252V44.7604C87.3401 44.6046 87.3937 44.4732 87.5008 44.3661C87.6176 44.2493 87.7538 44.1909 87.9096 44.1909C88.0653 44.1909 88.1968 44.2493 88.3038 44.3661C88.4206 44.4732 88.4791 44.6046 88.4791 44.7604V54.5142H94.1883C94.344 54.5142 94.4754 54.5677 94.5825 54.6748C94.6993 54.7721 94.7577 54.8987 94.7577 55.0544C94.7577 55.2102 94.6993 55.3416 94.5825 55.4487C94.4754 55.546 94.344 55.5947 94.1883 55.5947H87.9096ZM101.427 55.5947C101.262 55.5947 101.126 55.5412 101.019 55.4341C100.911 55.327 100.858 55.1907 100.858 55.0252V44.7604C100.858 44.5949 100.911 44.4586 101.019 44.3515C101.126 44.2444 101.262 44.1909 101.427 44.1909H108.276C108.431 44.1909 108.563 44.2444 108.67 44.3515C108.787 44.4489 108.845 44.5803 108.845 44.7458C108.845 44.8918 108.787 45.0183 108.67 45.1254C108.563 45.2325 108.431 45.286 108.276 45.286H101.997V49.316H106.567C106.733 49.316 106.869 49.3696 106.976 49.4767C107.083 49.5837 107.137 49.7151 107.137 49.8709C107.137 50.0266 107.083 50.1581 106.976 50.2651C106.869 50.3722 106.733 50.4258 106.567 50.4258H101.997V54.4996H108.276C108.431 54.4996 108.563 54.5531 108.67 54.6602C108.787 54.7673 108.845 54.8938 108.845 55.0398C108.845 55.2053 108.787 55.3416 108.67 55.4487C108.563 55.546 108.431 55.5947 108.276 55.5947H101.427ZM114.472 55.7407C113.849 55.7407 113.27 55.6531 112.735 55.4779C112.209 55.2929 111.751 55.035 111.362 54.704C110.973 54.373 110.676 53.9885 110.471 53.5505C110.393 53.3947 110.389 53.2536 110.457 53.127C110.535 52.9908 110.661 52.8983 110.836 52.8496C110.973 52.8107 111.104 52.8253 111.231 52.8934C111.367 52.9615 111.469 53.0638 111.537 53.2C111.683 53.4823 111.897 53.7354 112.18 53.9593C112.462 54.1832 112.798 54.3584 113.187 54.485C113.577 54.6018 114.005 54.6602 114.472 54.6602C114.988 54.6602 115.446 54.5775 115.845 54.412C116.244 54.2367 116.555 53.9885 116.779 53.6673C117.013 53.3363 117.13 52.9372 117.13 52.47C117.13 51.8762 116.911 51.3651 116.473 50.9368C116.035 50.5085 115.348 50.2359 114.414 50.1191C113.275 49.9828 112.384 49.6324 111.742 49.0678C111.099 48.4935 110.778 47.7926 110.778 46.9652C110.778 46.3714 110.934 45.8555 111.245 45.4174C111.566 44.9794 112.005 44.6435 112.559 44.4099C113.114 44.1666 113.752 44.0449 114.472 44.0449C115.008 44.0449 115.494 44.1325 115.932 44.3077C116.37 44.4732 116.75 44.6971 117.071 44.9794C117.402 45.2519 117.67 45.5537 117.874 45.8847C117.972 46.0404 118.001 46.1913 117.962 46.3373C117.933 46.4833 117.85 46.5953 117.714 46.6732C117.568 46.7413 117.417 46.751 117.261 46.7024C117.115 46.6537 117.003 46.5612 116.925 46.4249C116.779 46.201 116.594 45.9918 116.37 45.7971C116.156 45.5926 115.893 45.432 115.582 45.3152C115.27 45.1984 114.896 45.1351 114.458 45.1254C113.689 45.1254 113.07 45.2909 112.603 45.6218C112.136 45.9431 111.902 46.4152 111.902 47.0382C111.902 47.3692 111.99 47.6758 112.165 47.9581C112.34 48.2307 112.628 48.4691 113.027 48.6736C113.435 48.8683 113.981 49.0143 114.662 49.1116C115.879 49.2868 116.779 49.6616 117.363 50.2359C117.957 50.8005 118.254 51.5403 118.254 52.4554C118.254 52.981 118.157 53.4483 117.962 53.8571C117.777 54.266 117.509 54.6115 117.159 54.8938C116.818 55.1664 116.414 55.3757 115.947 55.5217C115.489 55.6677 114.998 55.7407 114.472 55.7407ZM123.366 55.5947C123.21 55.5947 123.074 55.5412 122.957 55.4341C122.85 55.3173 122.796 55.181 122.796 55.0252V44.1909H123.935V55.0252C123.935 55.181 123.881 55.3173 123.774 55.4341C123.667 55.5412 123.531 55.5947 123.366 55.5947ZM119.336 45.2276C119.18 45.2276 119.053 45.1789 118.956 45.0816C118.859 44.9842 118.81 44.8626 118.81 44.7166C118.81 44.5608 118.859 44.4343 118.956 44.3369C119.053 44.2396 119.18 44.1909 119.336 44.1909H127.41C127.566 44.1909 127.692 44.2396 127.79 44.3369C127.887 44.4343 127.936 44.5608 127.936 44.7166C127.936 44.8626 127.887 44.9842 127.79 45.0816C127.692 45.1789 127.566 45.2276 127.41 45.2276H119.336ZM127.822 55.5947C127.598 55.5947 127.437 55.5022 127.34 55.3173C127.243 55.1323 127.233 54.9522 127.311 54.777L131.604 44.5851C131.711 44.3223 131.896 44.1909 132.159 44.1909C132.412 44.1909 132.592 44.3223 132.699 44.5851L137.006 54.7916C137.094 54.9766 137.079 55.1566 136.962 55.3319C136.855 55.5071 136.7 55.5947 136.495 55.5947C136.378 55.5947 136.271 55.5655 136.174 55.5071C136.086 55.4487 136.013 55.3611 135.955 55.2443L131.939 45.505H132.392L128.348 55.2443C128.299 55.3611 128.226 55.4487 128.128 55.5071C128.041 55.5655 127.939 55.5947 127.822 55.5947ZM128.786 52.8788L129.224 51.9005H135.152L135.59 52.8788H128.786ZM140.862 55.5947C140.706 55.5947 140.57 55.5412 140.453 55.4341C140.346 55.3173 140.292 55.181 140.292 55.0252V44.1909H141.431V55.0252C141.431 55.181 141.378 55.3173 141.271 55.4341C141.163 55.5412 141.027 55.5947 140.862 55.5947ZM136.832 45.2276C136.676 45.2276 136.549 45.1789 136.452 45.0816C136.355 44.9842 136.306 44.8626 136.306 44.7166C136.306 44.5608 136.355 44.4343 136.452 44.3369C136.549 44.2396 136.676 44.1909 136.832 44.1909H144.906C145.062 44.1909 145.189 44.2396 145.286 44.3369C145.383 44.4343 145.432 44.5608 145.432 44.7166C145.432 44.8626 145.383 44.9842 145.286 45.0816C145.189 45.1789 145.062 45.2276 144.906 45.2276H136.832ZM147.685 55.5947C147.519 55.5947 147.383 55.5412 147.276 55.4341C147.169 55.327 147.115 55.1907 147.115 55.0252V44.7604C147.115 44.5949 147.169 44.4586 147.276 44.3515C147.383 44.2444 147.519 44.1909 147.685 44.1909H154.533C154.688 44.1909 154.82 44.2444 154.927 44.3515C155.044 44.4489 155.102 44.5803 155.102 44.7458C155.102 44.8918 155.044 45.0183 154.927 45.1254C154.82 45.2325 154.688 45.286 154.533 45.286H148.254V49.316H152.824C152.99 49.316 153.126 49.3696 153.233 49.4767C153.34 49.5837 153.394 49.7151 153.394 49.8709C153.394 50.0266 153.34 50.1581 153.233 50.2651C153.126 50.3722 152.99 50.4258 152.824 50.4258H148.254V54.4996H154.533C154.688 54.4996 154.82 54.5531 154.927 54.6602C155.044 54.7673 155.102 54.8938 155.102 55.0398C155.102 55.2053 155.044 55.3416 154.927 55.4487C154.82 55.546 154.688 55.5947 154.533 55.5947H147.685Z" fill="#A6B5CB"/>
</g>
</g>
</svg>
