<svg width="160" height="80" viewBox="0 0 160 80" fill="none" xmlns="http://www.w3.org/2000/svg">
<path d="M61.672 7.87654C61.672 8.24768 61.562 8.61049 61.3558 8.91909C61.1496 9.22768 60.8565 9.4682 60.5136 9.61023C60.1707 9.75226 59.7934 9.78942 59.4294 9.71702C59.0654 9.64461 58.731 9.46589 58.4686 9.20345C58.2061 8.94101 58.0274 8.60664 57.955 8.24263C57.8826 7.87862 57.9198 7.50131 58.0618 7.15842C58.2038 6.81553 58.4443 6.52245 58.7529 6.31626C59.0615 6.11006 59.4243 6 59.7955 6C60.042 5.99963 60.2862 6.04791 60.514 6.14209C60.7419 6.23626 60.9489 6.37447 61.1232 6.54879C61.2976 6.72312 61.4358 6.93014 61.5299 7.15798C61.6241 7.38582 61.6724 7.63 61.672 7.87654Z" fill="#E3E3E3"/>
<path d="M70.6085 7.87654C70.6085 8.2478 70.4984 8.61072 70.2921 8.91938C70.0858 9.22803 69.7925 9.46855 69.4495 9.6105C69.1064 9.75245 68.729 9.78944 68.3649 9.71681C68.0008 9.64417 67.6664 9.46517 67.4041 9.20244C67.1418 8.93972 66.9633 8.60509 66.8912 8.24089C66.8191 7.87669 66.8567 7.49929 66.9991 7.15645C67.1416 6.81361 67.3826 6.52073 67.6915 6.31488C68.0005 6.10902 68.3636 5.99944 68.7348 6C68.9811 6 69.225 6.04856 69.4525 6.1429C69.68 6.23724 69.8867 6.37551 70.0608 6.5498C70.2348 6.72409 70.3727 6.93098 70.4667 7.15863C70.5607 7.38629 70.6089 7.63024 70.6085 7.87654Z" fill="#E3E3E3"/>
<path d="M88.4845 7.87654C88.4845 8.24768 88.3745 8.61049 88.1683 8.91909C87.9621 9.22768 87.669 9.4682 87.3261 9.61023C86.9832 9.75226 86.6059 9.78942 86.2419 9.71702C85.8779 9.64461 85.5435 9.46589 85.2811 9.20345C85.0186 8.94101 84.8399 8.60664 84.7675 8.24263C84.6951 7.87862 84.7323 7.50131 84.8743 7.15842C85.0163 6.81553 85.2568 6.52245 85.5654 6.31626C85.874 6.11006 86.2368 6 86.608 6C86.8545 5.99963 87.0987 6.04791 87.3265 6.14209C87.5544 6.23626 87.7614 6.37447 87.9357 6.54879C88.1101 6.72312 88.2483 6.93014 88.3424 7.15798C88.4366 7.38582 88.4849 7.63 88.4845 7.87654Z" fill="#E3E3E3"/>
<path d="M97.421 7.87654C97.421 8.2478 97.3109 8.61072 97.1046 8.91938C96.8983 9.22803 96.605 9.46855 96.262 9.6105C95.9189 9.75245 95.5415 9.78944 95.1774 9.71681C94.8133 9.64417 94.4789 9.46517 94.2166 9.20244C93.9543 8.93972 93.7758 8.60509 93.7037 8.24089C93.6316 7.87669 93.6692 7.49929 93.8116 7.15645C93.9541 6.81361 94.1951 6.52073 94.504 6.31488C94.813 6.10902 95.1761 5.99944 95.5473 6C95.7936 6 96.0375 6.04856 96.265 6.1429C96.4925 6.23724 96.6992 6.37551 96.8732 6.5498C97.0473 6.72409 97.1852 6.93098 97.2792 7.15863C97.3732 7.38629 97.4214 7.63024 97.421 7.87654Z" fill="#E3E3E3"/>
<path d="M61.672 16.8863C61.672 17.2575 61.562 17.6203 61.3558 17.9289C61.1496 18.2375 60.8565 18.478 60.5136 18.62C60.1707 18.7621 59.7934 18.7992 59.4294 18.7268C59.0654 18.6544 58.731 18.4757 58.4686 18.2133C58.2061 17.9508 58.0274 17.6165 57.955 17.2524C57.8826 16.8884 57.9198 16.5111 58.0618 16.1682C58.2038 15.8253 58.4443 15.5323 58.7529 15.3261C59.0615 15.1199 59.4243 15.0098 59.7955 15.0098C60.042 15.0094 60.2862 15.0577 60.514 15.1519C60.7419 15.2461 60.9489 15.3843 61.1232 15.5586C61.2976 15.7329 61.4358 15.9399 61.5299 16.1678C61.6241 16.3956 61.6724 16.6398 61.672 16.8863Z" fill="#E3E3E3"/>
<path d="M70.6085 16.8863C70.6085 17.2576 70.4984 17.6205 70.2921 17.9292C70.0858 18.2378 69.7925 18.4784 69.4495 18.6203C69.1064 18.7623 68.729 18.7993 68.3649 18.7266C68.0008 18.654 67.6664 18.475 67.4041 18.2123C67.1418 17.9495 66.9633 17.6149 66.8912 17.2507C66.8191 16.8865 66.8567 16.5091 66.9991 16.1663C67.1416 15.8234 67.3826 15.5305 67.6915 15.3247C68.0005 15.1188 68.3636 15.0093 68.7348 15.0098C68.9811 15.0098 69.225 15.0584 69.4525 15.1527C69.68 15.2471 69.8867 15.3853 70.0608 15.5596C70.2348 15.7339 70.3727 15.9408 70.4667 16.1684C70.5607 16.3961 70.6089 16.6401 70.6085 16.8863Z" fill="#E3E3E3"/>
<path d="M97.421 16.8863C97.421 17.2576 97.3109 17.6205 97.1046 17.9292C96.8983 18.2378 96.605 18.4784 96.262 18.6203C95.9189 18.7623 95.5415 18.7993 95.1774 18.7266C94.8133 18.654 94.4789 18.475 94.2166 18.2123C93.9543 17.9495 93.7758 17.6149 93.7037 17.2507C93.6316 16.8865 93.6692 16.5091 93.8116 16.1663C93.9541 15.8234 94.1951 15.5305 94.504 15.3247C94.813 15.1188 95.1761 15.0093 95.5473 15.0098C95.7936 15.0098 96.0375 15.0584 96.265 15.1527C96.4925 15.2471 96.6992 15.3853 96.8732 15.5596C97.0473 15.7339 97.1852 15.9408 97.2792 16.1684C97.3732 16.3961 97.4214 16.6401 97.421 16.8863Z" fill="#E3E3E3"/>
<path d="M61.672 25.8942C61.672 26.2653 61.562 26.6281 61.3558 26.9367C61.1496 27.2453 60.8565 27.4858 60.5136 27.6279C60.1707 27.7699 59.7934 27.807 59.4294 27.7346C59.0654 27.6622 58.731 27.4835 58.4686 27.2211C58.2061 26.9586 58.0274 26.6243 57.955 26.2603C57.8826 25.8962 57.9198 25.5189 58.0618 25.176C58.2038 24.8331 58.4443 24.5401 58.7529 24.3339C59.0615 24.1277 59.4243 24.0176 59.7955 24.0176C60.042 24.0173 60.2862 24.0655 60.514 24.1597C60.7419 24.2539 60.9489 24.3921 61.1232 24.5664C61.2976 24.7407 61.4358 24.9478 61.5299 25.1756C61.6241 25.4034 61.6724 25.6476 61.672 25.8942Z" fill="#E3E3E3"/>
<path d="M60.3102 34.9023H59.2812V43.9108H60.3102V34.9023Z" fill="#A6B5CB"/>
<path d="M69.2487 25.8945H68.2197V43.9116H69.2487V25.8945Z" fill="#A6B5CB"/>
<path d="M78.1853 7.87695H77.1562V43.9138H78.1853V7.87695Z" fill="#A6B5CB"/>
<path d="M87.1235 16.8848H86.0945V43.9104H87.1235V16.8848Z" fill="#A6B5CB"/>
<path d="M96.0641 25.8945H95.0352V43.9116H96.0641V25.8945Z" fill="#A6B5CB"/>
<path d="M75.7969 16.8863C75.7969 17.2575 75.9069 17.6203 76.1131 17.9289C76.3193 18.2375 76.6124 18.478 76.9553 18.62C77.2982 18.7621 77.6755 18.7992 78.0395 18.7268C78.4035 18.6544 78.7379 18.4757 79.0003 18.2133C79.2628 17.9508 79.4415 17.6165 79.5139 17.2524C79.5863 16.8884 79.5491 16.5111 79.4071 16.1682C79.2651 15.8253 79.0246 15.5323 78.716 15.3261C78.4074 15.1199 78.0446 15.0098 77.6734 15.0098C77.4269 15.0094 77.1827 15.0577 76.9549 15.1519C76.727 15.2461 76.52 15.3843 76.3457 15.5586C76.1713 15.7329 76.0331 15.9399 75.939 16.1678C75.8448 16.3956 75.7965 16.6398 75.7969 16.8863Z" fill="#A6B5CB"/>
<path d="M66.8584 25.8942C66.8584 26.2653 66.9685 26.6281 67.1747 26.9367C67.3808 27.2453 67.6739 27.4858 68.0168 27.6279C68.3597 27.7699 68.737 27.807 69.101 27.7346C69.465 27.6622 69.7994 27.4835 70.0618 27.2211C70.3243 26.9586 70.503 26.6243 70.5754 26.2603C70.6478 25.8962 70.6107 25.5189 70.4686 25.176C70.3266 24.8331 70.0861 24.5401 69.7775 24.3339C69.4689 24.1277 69.1061 24.0176 68.7349 24.0176C68.4884 24.0173 68.2442 24.0655 68.0164 24.1597C67.7885 24.2539 67.5815 24.3921 67.4072 24.5664C67.2329 24.7407 67.0947 24.9478 67.0005 25.1756C66.9063 25.4034 66.858 25.6476 66.8584 25.8942Z" fill="#A6B5CB"/>
<path d="M75.7969 25.8942C75.7969 26.2653 75.9069 26.6281 76.1131 26.9367C76.3193 27.2453 76.6124 27.4858 76.9553 27.6279C77.2982 27.7699 77.6755 27.807 78.0395 27.7346C78.4035 27.6622 78.7379 27.4835 79.0003 27.2211C79.2628 26.9586 79.4415 26.6243 79.5139 26.2603C79.5863 25.8962 79.5491 25.5189 79.4071 25.176C79.2651 24.8331 79.0246 24.5401 78.716 24.3339C78.4074 24.1277 78.0446 24.0176 77.6734 24.0176C77.4269 24.0173 77.1827 24.0655 76.9549 24.1597C76.727 24.2539 76.52 24.3921 76.3457 24.5664C76.1713 24.7407 76.0331 24.9478 75.939 25.1756C75.8448 25.4034 75.7965 25.6476 75.7969 25.8942Z" fill="#A6B5CB"/>
<path d="M93.6719 25.8942C93.6719 26.2653 93.7819 26.6281 93.9881 26.9367C94.1943 27.2453 94.4874 27.4858 94.8303 27.6279C95.1732 27.7699 95.5505 27.807 95.9145 27.7346C96.2785 27.6622 96.6129 27.4835 96.8753 27.2211C97.1378 26.9586 97.3165 26.6243 97.3889 26.2603C97.4613 25.8962 97.4241 25.5189 97.2821 25.176C97.1401 24.8331 96.8996 24.5401 96.591 24.3339C96.2824 24.1277 95.9196 24.0176 95.5484 24.0176C95.3019 24.0173 95.0577 24.0655 94.8299 24.1597C94.602 24.2539 94.395 24.3921 94.2207 24.5664C94.0463 24.7407 93.9081 24.9478 93.814 25.1756C93.7198 25.4034 93.6715 25.6476 93.6719 25.8942Z" fill="#A6B5CB"/>
<path d="M57.9207 34.9147C57.9201 35.2861 58.0297 35.6493 58.2357 35.9583C58.4417 36.2674 58.7348 36.5083 59.0778 36.6507C59.4208 36.7931 59.7983 36.8305 60.1626 36.7582C60.5269 36.6859 60.8615 36.5071 61.1241 36.2445C61.3867 35.9819 61.5655 35.6472 61.6378 35.283C61.7101 34.9187 61.6727 34.5411 61.5303 34.1981C61.388 33.8551 61.147 33.5621 60.838 33.3561C60.5289 33.1501 60.1657 33.0405 59.7944 33.041C59.2977 33.0418 58.8215 33.2394 58.4703 33.5907C58.1191 33.9419 57.9214 34.418 57.9207 34.9147Z" fill="#A6B5CB"/>
<path d="M66.8584 34.9147C66.8578 35.286 66.9674 35.6491 67.1733 35.958C67.3791 36.267 67.672 36.508 68.0149 36.6504C68.3577 36.7929 68.7351 36.8305 69.0993 36.7584C69.4635 36.6863 69.7981 36.5078 70.0608 36.2455C70.3236 35.9832 70.5026 35.6488 70.5752 35.2847C70.6478 34.9206 70.6108 34.5432 70.4689 34.2001C70.327 33.857 70.0864 33.5638 69.7778 33.3575C69.4691 33.1512 69.1062 33.041 68.7349 33.041C68.2377 33.041 67.7609 33.2383 67.409 33.5896C67.0572 33.941 66.8592 34.4175 66.8584 34.9147Z" fill="#A6B5CB"/>
<path d="M75.7969 34.9147C75.7963 35.286 75.9059 35.6491 76.1118 35.958C76.3176 36.267 76.6105 36.508 76.9533 36.6504C77.2962 36.7929 77.6736 36.8305 78.0378 36.7584C78.402 36.6863 78.7366 36.5078 78.9993 36.2455C79.262 35.9832 79.441 35.6488 79.5137 35.2847C79.5863 34.9206 79.5493 34.5432 79.4074 34.2001C79.2654 33.857 79.0249 33.5638 78.7163 33.3575C78.4076 33.1512 78.0447 33.041 77.6734 33.041C77.1762 33.041 76.6993 33.2383 76.3475 33.5896C75.9957 33.941 75.7976 34.4175 75.7969 34.9147Z" fill="#A6B5CB"/>
<path d="M84.7336 34.9147C84.7331 35.2861 84.8427 35.6493 85.0487 35.9583C85.2547 36.2674 85.5477 36.5083 85.8908 36.6507C86.2338 36.7931 86.6113 36.8305 86.9756 36.7582C87.3399 36.6859 87.6746 36.5071 87.9372 36.2445C88.1998 35.9819 88.3785 35.6472 88.4508 35.283C88.5231 34.9187 88.4857 34.5411 88.3433 34.1981C88.2009 33.8551 87.96 33.5621 87.651 33.3561C87.3419 33.1501 86.9787 33.0405 86.6073 33.041C86.1106 33.0418 85.6345 33.2394 85.2833 33.5907C84.932 33.9419 84.7344 34.418 84.7336 34.9147Z" fill="#A6B5CB"/>
<path d="M93.6719 34.9147C93.6713 35.286 93.7809 35.6491 93.9868 35.958C94.1926 36.267 94.4855 36.508 94.8283 36.6504C95.1712 36.7929 95.5486 36.8305 95.9128 36.7584C96.277 36.6863 96.6116 36.5078 96.8743 36.2455C97.137 35.9832 97.316 35.6488 97.3887 35.2847C97.4613 34.9206 97.4243 34.5432 97.2824 34.2001C97.1404 33.857 96.8999 33.5638 96.5913 33.3575C96.2826 33.1512 95.9197 33.041 95.5484 33.041C95.0512 33.041 94.5743 33.2383 94.2225 33.5896C93.8707 33.941 93.6726 34.4175 93.6719 34.9147Z" fill="#A6B5CB"/>
<path d="M57.9207 43.9108C57.9201 44.2822 58.0297 44.6454 58.2357 44.9544C58.4417 45.2635 58.7348 45.5044 59.0778 45.6468C59.4208 45.7892 59.7983 45.8266 60.1626 45.7543C60.5269 45.682 60.8615 45.5032 61.1241 45.2406C61.3867 44.978 61.5655 44.6433 61.6378 44.2791C61.7101 43.9148 61.6727 43.5372 61.5303 43.1942C61.388 42.8512 61.147 42.5582 60.838 42.3522C60.5289 42.1462 60.1657 42.0366 59.7944 42.0371C59.2977 42.0379 58.8215 42.2355 58.4703 42.5867C58.1191 42.938 57.9214 43.4141 57.9207 43.9108Z" fill="#A6B5CB"/>
<path d="M66.8584 43.9108C66.8578 44.2821 66.9674 44.6452 67.1733 44.9541C67.3791 45.2631 67.672 45.5041 68.0149 45.6465C68.3577 45.789 68.7351 45.8266 69.0993 45.7545C69.4635 45.6824 69.7981 45.5039 70.0608 45.2416C70.3236 44.9792 70.5026 44.6449 70.5752 44.2808C70.6478 43.9167 70.6108 43.5392 70.4689 43.1962C70.327 42.8531 70.0864 42.5599 69.7778 42.3536C69.4691 42.1472 69.1062 42.0371 68.7349 42.0371C68.2377 42.0371 67.7609 42.2344 67.409 42.5857C67.0572 42.937 66.8592 43.4136 66.8584 43.9108Z" fill="#A6B5CB"/>
<path d="M75.7969 43.9108C75.7963 44.2821 75.9059 44.6452 76.1118 44.9541C76.3176 45.2631 76.6105 45.5041 76.9533 45.6465C77.2962 45.789 77.6736 45.8266 78.0378 45.7545C78.402 45.6824 78.7366 45.5039 78.9993 45.2416C79.262 44.9792 79.441 44.6449 79.5137 44.2808C79.5863 43.9167 79.5493 43.5392 79.4074 43.1962C79.2654 42.8531 79.0249 42.5599 78.7163 42.3536C78.4076 42.1472 78.0447 42.0371 77.6734 42.0371C77.1762 42.0371 76.6993 42.2344 76.3475 42.5857C75.9957 42.937 75.7976 43.4136 75.7969 43.9108Z" fill="#A6B5CB"/>
<path d="M84.7336 43.9108C84.7331 44.2822 84.8427 44.6454 85.0487 44.9544C85.2547 45.2635 85.5477 45.5044 85.8908 45.6468C86.2338 45.7892 86.6113 45.8266 86.9756 45.7543C87.3399 45.682 87.6746 45.5032 87.9372 45.2406C88.1998 44.978 88.3785 44.6433 88.4508 44.2791C88.5231 43.9148 88.4857 43.5372 88.3433 43.1942C88.2009 42.8512 87.96 42.5582 87.651 42.3522C87.3419 42.1462 86.9787 42.0366 86.6073 42.0371C86.1106 42.0379 85.6345 42.2355 85.2833 42.5867C84.932 42.938 84.7344 43.4141 84.7336 43.9108Z" fill="#A6B5CB"/>
<path d="M93.6719 43.9108C93.6713 44.2821 93.7809 44.6452 93.9868 44.9541C94.1926 45.2631 94.4855 45.5041 94.8283 45.6465C95.1712 45.789 95.5486 45.8266 95.9128 45.7545C96.277 45.6824 96.6116 45.5039 96.8743 45.2416C97.137 44.9792 97.316 44.6449 97.3887 44.2808C97.4613 43.9167 97.4243 43.5392 97.2824 43.1962C97.1404 42.8531 96.8999 42.5599 96.5913 42.3536C96.2826 42.1472 95.9197 42.0371 95.5484 42.0371C95.0512 42.0371 94.5743 42.2344 94.2225 42.5857C93.8707 42.937 93.6726 43.4136 93.6719 43.9108Z" fill="#A6B5CB"/>
<path d="M75.7969 7.87654C75.7969 8.24768 75.9069 8.61049 76.1131 8.91909C76.3193 9.22768 76.6124 9.4682 76.9553 9.61023C77.2982 9.75226 77.6755 9.78942 78.0395 9.71702C78.4035 9.64461 78.7379 9.46589 79.0003 9.20345C79.2628 8.94101 79.4415 8.60664 79.5139 8.24263C79.5863 7.87862 79.5491 7.50131 79.4071 7.15842C79.2651 6.81553 79.0246 6.52245 78.716 6.31626C78.4074 6.11006 78.0446 6 77.6734 6C77.4269 5.99963 77.1827 6.04791 76.9549 6.14209C76.727 6.23626 76.52 6.37447 76.3457 6.54879C76.1713 6.72312 76.0331 6.93014 75.939 7.15798C75.8448 7.38582 75.7965 7.63 75.7969 7.87654Z" fill="#A6B5CB"/>
<path d="M84.7336 16.8863C84.7336 17.2576 84.8438 17.6205 85.0501 17.9292C85.2564 18.2378 85.5497 18.4784 85.8927 18.6203C86.2358 18.7623 86.6132 18.7993 86.9773 18.7266C87.3414 18.654 87.6758 18.475 87.9381 18.2123C88.2004 17.9495 88.3789 17.6149 88.451 17.2507C88.5231 16.8865 88.4855 16.5091 88.3431 16.1663C88.2006 15.8234 87.9597 15.5305 87.6508 15.3247C87.3418 15.1188 86.9786 15.0093 86.6073 15.0098C86.361 15.0098 86.1172 15.0584 85.8897 15.1527C85.6621 15.2471 85.4555 15.3853 85.2814 15.5596C85.1074 15.7339 84.9696 15.9408 84.8756 16.1684C84.7816 16.3961 84.7333 16.6401 84.7336 16.8863Z" fill="#E3E3E3"/>
<path d="M84.7336 25.8942C84.7336 26.2654 84.8438 26.6283 85.0501 26.937C85.2564 27.2457 85.5497 27.4862 85.8927 27.6281C86.2358 27.7701 86.6132 27.8071 86.9773 27.7344C87.3414 27.6618 87.6758 27.4828 87.9381 27.2201C88.2004 26.9573 88.3789 26.6227 88.451 26.2585C88.5231 25.8943 88.4855 25.5169 88.3431 25.1741C88.2006 24.8312 87.9597 24.5384 87.6508 24.3325C87.3418 24.1266 86.9786 24.0171 86.6073 24.0176C86.361 24.0176 86.1172 24.0662 85.8897 24.1605C85.6621 24.2549 85.4555 24.3931 85.2814 24.5674C85.1074 24.7417 84.9696 24.9486 84.8756 25.1763C84.7816 25.4039 84.7333 25.6479 84.7336 25.8942Z" fill="#A6B5CB"/>
<path d="M43.2187 64.2092H41.4812L46.5068 50.5225H48.2176L53.2432 64.2092H51.5056L47.4156 52.6878H47.3087L43.2187 64.2092ZM43.8603 58.8628H50.864V60.3331H43.8603V58.8628ZM59.3314 64.423C58.369 64.423 57.5403 64.1958 56.8453 63.7414C56.1503 63.2869 55.6156 62.661 55.2414 61.8635C54.8671 61.066 54.68 60.1549 54.68 59.1301C54.68 58.0876 54.8716 57.1676 55.2548 56.3701C55.6424 55.5681 56.1815 54.9422 56.872 54.4922C57.5671 54.0377 58.3779 53.8105 59.3046 53.8105C60.0264 53.8105 60.6769 53.9442 61.256 54.2115C61.8352 54.4788 62.3097 54.8531 62.6795 55.3342C63.0493 55.8154 63.2788 56.3768 63.3679 57.0183H61.7907C61.6704 56.5505 61.4031 56.1362 60.9887 55.7753C60.5788 55.41 60.0264 55.2273 59.3314 55.2273C58.7165 55.2273 58.1774 55.3877 57.7141 55.7085C57.2552 56.0248 56.8965 56.4726 56.6381 57.0517C56.3842 57.6265 56.2572 58.3015 56.2572 59.0767C56.2572 59.8697 56.3819 60.5603 56.6314 61.1484C56.8854 61.7365 57.2418 62.1932 57.7007 62.5184C58.1641 62.8436 58.7076 63.0063 59.3314 63.0063C59.7412 63.0063 60.1133 62.935 60.4474 62.7924C60.7816 62.6498 61.0645 62.4449 61.2961 62.1776C61.5278 61.9103 61.6927 61.5895 61.7907 61.2152H63.3679C63.2788 61.8212 63.0582 62.3669 62.7063 62.8526C62.3587 63.3337 61.8976 63.7169 61.3229 64.002C60.7526 64.2827 60.0888 64.423 59.3314 64.423ZM69.8437 64.423C68.8813 64.423 68.0526 64.1958 67.3576 63.7414C66.6626 63.2869 66.1279 62.661 65.7537 61.8635C65.3794 61.066 65.1923 60.1549 65.1923 59.1301C65.1923 58.0876 65.3839 57.1676 65.767 56.3701C66.1547 55.5681 66.6937 54.9422 67.3843 54.4922C68.0793 54.0377 68.8902 53.8105 69.8169 53.8105C70.5387 53.8105 71.1892 53.9442 71.7683 54.2115C72.3475 54.4788 72.822 54.8531 73.1918 55.3342C73.5616 55.8154 73.7911 56.3768 73.8802 57.0183H72.303C72.1827 56.5505 71.9154 56.1362 71.501 55.7753C71.0911 55.41 70.5387 55.2273 69.8437 55.2273C69.2288 55.2273 68.6897 55.3877 68.2264 55.7085C67.7675 56.0248 67.4088 56.4726 67.1504 57.0517C66.8965 57.6265 66.7695 58.3015 66.7695 59.0767C66.7695 59.8697 66.8942 60.5603 67.1437 61.1484C67.3977 61.7365 67.7541 62.1932 68.213 62.5184C68.6764 62.8436 69.2199 63.0063 69.8437 63.0063C70.2535 63.0063 70.6256 62.935 70.9597 62.7924C71.2939 62.6498 71.5768 62.4449 71.8084 62.1776C72.0401 61.9103 72.205 61.5895 72.303 61.2152H73.8802C73.7911 61.8212 73.5705 62.3669 73.2185 62.8526C72.871 63.3337 72.4099 63.7169 71.8352 64.002C71.2649 64.2827 70.6011 64.423 69.8437 64.423ZM82.6549 60.0123V53.9442H84.2321V64.2092H82.6549V62.4716H82.548C82.3074 62.9929 81.9331 63.4362 81.4252 63.8015C80.9173 64.1624 80.2757 64.3429 79.5005 64.3429C78.859 64.3429 78.2887 64.2025 77.7897 63.9218C77.2907 63.6367 76.8986 63.209 76.6135 62.6387C76.3283 62.064 76.1858 61.34 76.1858 60.4667V53.9442H77.763V60.3598C77.763 61.1083 77.9724 61.7053 78.3912 62.1508C78.8144 62.5964 79.3535 62.8191 80.0084 62.8191C80.4005 62.8191 80.7992 62.7189 81.2047 62.5184C81.6146 62.3179 81.9576 62.0105 82.2339 61.5962C82.5145 61.1818 82.6549 60.6539 82.6549 60.0123ZM94.3918 56.2431L92.975 56.6441C92.8859 56.408 92.7545 56.1785 92.5807 55.9557C92.4114 55.7285 92.1798 55.5414 91.8857 55.3944C91.5917 55.2473 91.2152 55.1738 90.7563 55.1738C90.1281 55.1738 89.6046 55.3186 89.1858 55.6082C88.7715 55.8934 88.5643 56.2565 88.5643 56.6975C88.5643 57.0896 88.7069 57.3993 88.992 57.6265C89.2771 57.8537 89.7227 58.0431 90.3286 58.1945L91.8523 58.5688C92.7701 58.7915 93.454 59.1324 93.904 59.5913C94.354 60.0457 94.579 60.6316 94.579 61.3489C94.579 61.937 94.4096 62.4627 94.071 62.9261C93.7369 63.3894 93.2691 63.7548 92.6676 64.0221C92.0662 64.2894 91.3667 64.423 90.5692 64.423C89.5222 64.423 88.6556 64.1958 87.9695 63.7414C87.2834 63.2869 86.849 62.6231 86.6663 61.7499L88.1633 61.3756C88.3059 61.9281 88.5754 62.3424 88.9719 62.6187C89.3729 62.8949 89.8964 63.033 90.5424 63.033C91.2776 63.033 91.8612 62.8771 92.2934 62.5652C92.73 62.2489 92.9483 61.8702 92.9483 61.4291C92.9483 61.0727 92.8236 60.7742 92.5741 60.5336C92.3246 60.2885 91.9414 60.1059 91.4246 59.9856L89.7138 59.5846C88.7737 59.3618 88.0831 59.0165 87.642 58.5487C87.2054 58.0765 86.9871 57.4861 86.9871 56.7777C86.9871 56.1986 87.1497 55.6862 87.475 55.2407C87.8047 54.7951 88.2524 54.4454 88.8182 54.1914C89.3885 53.9375 90.0345 53.8105 90.7563 53.8105C91.7721 53.8105 92.5696 54.0333 93.1488 54.4788C93.7324 54.9243 94.1468 55.5124 94.3918 56.2431ZM99.9738 64.4498C99.3233 64.4498 98.733 64.3273 98.2028 64.0822C97.6726 63.8327 97.2516 63.4741 96.9397 63.0063C96.6278 62.534 96.4719 61.9637 96.4719 61.2954C96.4719 60.7073 96.5877 60.2306 96.8194 59.8653C97.0511 59.4955 97.3607 59.2059 97.7483 58.9965C98.136 58.7871 98.5637 58.6312 99.0315 58.5287C99.5037 58.4218 99.9782 58.3371 100.455 58.2747C101.079 58.1945 101.584 58.1344 101.972 58.0943C102.364 58.0497 102.649 57.9762 102.827 57.8737C103.01 57.7713 103.101 57.5931 103.101 57.3391V57.2856C103.101 56.6263 102.921 56.1139 102.56 55.7486C102.204 55.3832 101.662 55.2006 100.936 55.2006C100.183 55.2006 99.5928 55.3654 99.1651 55.6951C98.7374 56.0248 98.4367 56.3768 98.2629 56.751L96.7659 56.2164C97.0333 55.5926 97.3897 55.107 97.8352 54.7595C98.2852 54.4075 98.7753 54.1625 99.3055 54.0244C99.8401 53.8818 100.366 53.8105 100.883 53.8105C101.212 53.8105 101.591 53.8506 102.019 53.9308C102.451 54.0065 102.867 54.1647 103.268 54.4053C103.674 54.6459 104.01 55.009 104.278 55.4946C104.545 55.9802 104.679 56.6307 104.679 57.446V64.2092H103.101V62.8191H103.021C102.914 63.0419 102.736 63.2803 102.487 63.5342C102.237 63.7882 101.905 64.0043 101.491 64.1825C101.076 64.3607 100.571 64.4498 99.9738 64.4498ZM100.214 63.033C100.838 63.033 101.364 62.9105 101.792 62.6654C102.224 62.4204 102.549 62.1041 102.767 61.7165C102.99 61.3288 103.101 60.9212 103.101 60.4935V59.05C103.035 59.1301 102.888 59.2037 102.66 59.2705C102.438 59.3329 102.179 59.3886 101.885 59.4376C101.595 59.4821 101.313 59.5222 101.036 59.5579C100.765 59.589 100.544 59.6158 100.375 59.6381C99.9649 59.6915 99.5817 59.7784 99.2253 59.8987C98.8733 60.0145 98.5882 60.1905 98.3699 60.4266C98.156 60.6583 98.0491 60.9746 98.0491 61.3756C98.0491 61.9236 98.2518 62.338 98.6572 62.6187C99.0671 62.8949 99.5862 63.033 100.214 63.033ZM112.128 53.9442V55.2808H106.595V53.9442H112.128ZM108.252 64.2092V52.5274C108.252 51.9393 108.39 51.4492 108.667 51.0571C108.943 50.6651 109.302 50.371 109.743 50.175C110.184 49.9789 110.649 49.8809 111.139 49.8809C111.527 49.8809 111.843 49.9121 112.088 49.9745C112.333 50.0369 112.516 50.0948 112.636 50.1482L112.182 51.5116C112.102 51.4848 111.99 51.4514 111.848 51.4113C111.71 51.3712 111.527 51.3512 111.3 51.3512C110.778 51.3512 110.402 51.4826 110.17 51.7455C109.943 52.0083 109.829 52.3937 109.829 52.9016V64.2092H108.252Z" fill="#A6B5CB"/>
</svg>
